SplineFontDB: 3.0
FontName: AnkaCoder-Norm-Skel
FullName: Anna Shugol/Coder Regular
FamilyName: Anka/Coder
Weight: Book
Copyright: Copyright (c) 2010, Andrey Makarov (makarov@bmstu.ru, mka-at-mailru@mail.ru),\nwith Reserved Font Name Anka/Coder Narrow.\n---------------------------------\nThe Anka/* are members of Anna Shugol name font family; March 2010
Version: 001.000
StrokeWidth: 100
ItalicAngle: 0
UnderlinePosition: -292
UnderlineWidth: 50
Ascent: 1638
Descent: 410
LayerCount: 2
Layer: 0 0 "Back"  1
Layer: 1 0 "Fore"  0
StrokedFont: 1
NeedsXUIDChange: 1
XUID: [1021 77 1780377344 11926472]
UseXUID: 1
BaseHoriz: 0
FSType: 8
OS2Version: 1
OS2_WeightWidthSlopeOnly: 0
OS2_UseTypoMetrics: 1
CreationTime: 1260467214
ModificationTime: 1268390961
PfmFamily: 49
TTFWeight: 400
TTFWidth: 4
LineGap: 0
VLineGap: 0
Panose: 2 11 5 9 2 5 2 2 2 4
OS2TypoAscent: 0
OS2TypoAOffset: 1
OS2TypoDescent: 0
OS2TypoDOffset: 1
OS2TypoLinegap: 0
OS2WinAscent: 0
OS2WinAOffset: 1
OS2WinDescent: 0
OS2WinDOffset: 1
HheadAscent: 0
HheadAOffset: 1
HheadDescent: 0
HheadDOffset: 1
OS2SubXSize: 553
OS2SubYSize: 1229
OS2SubXOff: 0
OS2SubYOff: 283
OS2SupXSize: 553
OS2SupYSize: 1229
OS2SupXOff: 0
OS2SupYOff: 977
OS2StrikeYSize: 102
OS2StrikeYPos: 530
OS2FamilyClass: 1285
OS2Vendor: 'AVM1'
OS2CodePages: 40000097.cfd60000
OS2UnicodeRanges: 800002ef.000079eb.00000000.00000000
DEI: 91125
ShortTable: maxp 16
  0
  0
  0
  0
  0
  0
  0
  2
  1
  0
  9
  0
  256
  0
  0
  0
EndShort
TtTable: prep
PUSHW_1
 511
SCANCTRL
SVTCA[y-axis]
MPPEM
PUSHB_1
 8
LT
IF
PUSHB_2
 1
 1
INSTCTRL
EIF
PUSHB_2
 70
 6
CALL
IF
POP
PUSHB_1
 16
EIF
MPPEM
PUSHB_1
 20
GT
IF
POP
PUSHB_1
 128
EIF
SCVTCI
PUSHB_1
 6
CALL
NOT
IF
EIF
EndTTInstrs
TtTable: fpgm
PUSHB_1
 0
FDEF
PUSHB_1
 0
SZP0
MPPEM
PUSHB_1
 42
LT
IF
PUSHB_1
 74
SROUND
EIF
PUSHB_1
 0
SWAP
MIAP[rnd]
RTG
PUSHB_1
 6
CALL
IF
RTDG
EIF
MPPEM
PUSHB_1
 42
LT
IF
RDTG
EIF
DUP
MDRP[rp0,rnd,grey]
PUSHB_1
 1
SZP0
MDAP[no-rnd]
RTG
ENDF
PUSHB_1
 1
FDEF
DUP
DUP
MDRP[rp0,min,white]
MDAP[rnd]

StartChar: exclam
Encoding: 33 33 1
Width: 1229
VWidth: 1708
GlyphClass: 2
Flags: W
HStem: -87 236<440.831 634.094>
VStem: 413 249<-57.6871 120.037 974.824 1386.02> 455 168<384 842.752>
LayerCount: 2
Fore
SplineSet
739 31 m 0xc0
 739 -38 680 -87 614 -87 c 0
 550 -87 490 -37 490 31 c 0
 490 93 544 149 614 149 c 0
 679 149 739 101 739 31 c 0xc0
611 1429 m 0
 685 1429 759 1377 759 1280 c 1
 724 384 l 1
 510 384 l 1xa0
 475 1281 l 1
 475 1377 543 1429 611 1429 c 0
EndSplineSet
EndChar

StartChar: quotedbl
Encoding: 34 34 2
Width: 1229
VWidth: 1708
GlyphClass: 2
Flags: W
LayerCount: 2
Fore
SplineSet
384 1069 m 2
 369 1044 346 1032 326 1032 c 3
 299 1032 276 1053 276 1089 c 3
 276 1096 276 1105 278 1113 c 2
 340 1358 l 2
 350 1398 396 1426 438 1426 c 3
 493 1426 524 1377 524 1331 c 3
 524 1315 520 1299 512 1286 c 2
 384 1069 l 2
814 1069 m 2
 799 1044 778 1032 758 1032 c 3
 731 1032 706 1053 706 1089 c 3
 706 1096 708 1105 710 1113 c 2
 770 1358 l 2
 780 1398 826 1426 868 1426 c 3
 923 1426 954 1377 954 1331 c 3
 954 1315 950 1299 942 1286 c 2
 814 1069 l 2
EndSplineSet
EndChar

StartChar: numbersign
Encoding: 35 35 3
Width: 1229
VWidth: 1708
GlyphClass: 2
Flags: W
LayerCount: 2
Back
SplineSet
0 0 m 1
 262 1350 l 1
 1229 1350 l 1
 967 0 l 1
 0 0 l 1
EndSplineSet
Fore
SplineSet
-61 973 m 25
 1292 973 l 25
-61 416 m 25
 1292 416 l 25
982 1425 m 25
 685 -99 l 25
540 1425 m 25
 242 -99 l 25
EndSplineSet
EndChar

StartChar: dollar
Encoding: 36 36 4
Width: 1229
VWidth: 2334
GlyphClass: 2
Flags: MW
LayerCount: 2
Fore
SplineSet
616 1494 m 25
 616 -93 l 25
143 325 m 0
 143 139 371 50 603 50 c 10
 628 50 l 18
 854 50 1055 183 1055 337 c 10
 1055 367 l 18
 1055 503 976 628 795 696 c 6
 409 830 l 6
 288 872 214 957 214 1033 c 2
 214 1063 l 2
 214 1250 383 1350 612 1350 c 10
 622 1350 l 18
 816 1350 979 1304 1031 1177 c 0
 1047 1136 1049 1093 1049 1063 c 0
EndSplineSet
EndChar

StartChar: percent
Encoding: 37 37 5
Width: 1229
VWidth: 1708
GlyphClass: 2
Flags: MW
LayerCount: 2
Fore
SplineSet
71 76 m 29
 1160 1325 l 29
308 1333 m 7
 414 1333 468 1246 468 1145 c 7
 468 1048 414 957 308 957 c 7
 204 957 148 1044 148 1145 c 7
 148 1248 205 1333 308 1333 c 7
923 439 m 7
 1029 439 1083 353 1083 252 c 7
 1083 154 1029 64 923 64 c 7
 819 64 763 151 763 252 c 7
 763 355 820 439 923 439 c 7
EndSplineSet
EndChar

StartChar: ampersand
Encoding: 38 38 6
Width: 1229
VWidth: 2334
GlyphClass: 2
Flags: MW
LayerCount: 2
Fore
SplineSet
1143 10 m 5
 522 811 l 6
 444 897 334 1036 334 1140 c 6
 334 1162 l 6
 334 1278 433 1350 603 1350 c 14
 631 1350 l 22
 807 1350 917 1271 917 1157 c 6
 917 1098 l 6
 917 1049 826 973 773 939 c 6
 326 639 l 5
 218 544 143 471 143 367 c 14
 143 337 l 22
 143 151 343 50 569 50 c 14
 595 50 l 22
 779 50 908 121 976 240 c 6
 1160 590 l 4
EndSplineSet
EndChar

StartChar: quotesingle
Encoding: 39 39 7
Width: 1229
VWidth: 1708
GlyphClass: 2
Flags: W
LayerCount: 2
Fore
SplineSet
598 1069 m 2
 583 1044 560 1032 540 1032 c 3
 513 1032 490 1053 490 1089 c 3
 490 1096 490 1105 492 1113 c 2
 554 1358 l 2
 564 1398 610 1426 652 1426 c 3
 707 1426 738 1377 738 1331 c 3
 738 1315 734 1299 726 1286 c 2
 598 1069 l 2
EndSplineSet
EndChar

StartChar: parenleft
Encoding: 40 40 8
Width: 1229
VWidth: 1708
GlyphClass: 2
Flags: MW
LayerCount: 2
Fore
SplineSet
1024 1480 m 21
 727 1352 453 1055 453 722 c 31
 453 375 727 81 1024 -80 c 13
EndSplineSet
EndChar

StartChar: parenright
Encoding: 41 41 9
Width: 1229
VWidth: 1708
GlyphClass: 2
Flags: MW
LayerCount: 2
Fore
SplineSet
205 1480 m 21
 504 1352 778 1055 778 722 c 31
 778 375 504 81 205 -80 c 13
EndSplineSet
EndChar

StartChar: asterisk
Encoding: 42 42 10
Width: 1229
VWidth: 1708
GlyphClass: 2
Flags: MW
LayerCount: 2
Fore
SplineSet
400 305 m 29
 615 600 l 29
 615 965 l 29
615 600 m 29
 830 305 l 29
962 713 m 29
 615 600 l 29
 268 713 l 29
EndSplineSet
EndChar

StartChar: plus
Encoding: 43 43 11
Width: 1229
VWidth: 1708
GlyphClass: 2
Flags: MW
LayerCount: 2
Fore
SplineSet
615 157 m 29
 615 1011 l 29
204 600 m 29
 1026 600 l 29
EndSplineSet
EndChar

StartChar: comma
Encoding: 44 44 12
Width: 1229
VWidth: 1947
GlyphClass: 2
Flags: MW
LayerCount: 2
Fore
SplineSet
712 29 m 21
 711 -103 693 -289 463 -315 c 13
 448 -260 l 21
 517 -235 659 -138 556 -49 c 13
 712 29 l 21
712 29 m 4
 712 -23 672 -68 614 -68 c 4
 558 -68 517 -23 517 29 c 4
 517 80 556 126 614 126 c 4
 671 126 712 81 712 29 c 4
EndSplineSet
EndChar

StartChar: hyphen
Encoding: 45 45 13
Width: 1229
VWidth: 1708
GlyphClass: 2
Flags: MW
LayerCount: 2
Fore
SplineSet
204 600 m 29
 1026 600 l 29
EndSplineSet
EndChar

StartChar: period
Encoding: 46 46 14
Width: 1229
VWidth: 1708
GlyphClass: 2
Flags: MW
LayerCount: 2
Fore
SplineSet
712 29 m 0
 712 -23 672 -68 614 -68 c 0
 559 -68 517 -24 517 29 c 0
 517 80 556 126 614 126 c 0
 671 126 712 82 712 29 c 0
EndSplineSet
EndChar

StartChar: slash
Encoding: 47 47 15
Width: 1229
VWidth: 1708
GlyphClass: 2
Flags: MW
LayerCount: 2
Fore
SplineSet
205 -25 m 29
 1024 1425 l 29
EndSplineSet
EndChar

StartChar: zero
Encoding: 48 48 16
Width: 1229
VWidth: 1708
GlyphClass: 2
Flags: MW
LayerCount: 2
Back
SplineSet
0 1476 m 5
 1096 1476 l 5
 1229 1218 l 5
 1229 -51 l 5
 138 -51 l 5
 0 187 l 5
 0 1476 l 5
EndSplineSet
Fore
SplineSet
-60 -72 m 25
 1296 1503 l 25
616 1350 m 3
 979 1350 1040 1057 1040 732 c 3
 1040 337 970 50 616 50 c 3
 250 50 192 416 192 732 c 3
 192 1057 256 1350 616 1350 c 3
EndSplineSet
EndChar

StartChar: one
Encoding: 49 49 17
Width: 1229
VWidth: 1708
GlyphClass: 2
Flags: MW
LayerCount: 2
Back
SplineSet
-61 335 m 1
 402 767 l 1
 546 1014 l 1
 444 1134 l 1
 713 1410 l 1
 1292 1410 l 1
 1292 -25 l 1
 -61 -25 l 1
 -61 335 l 1
EndSplineSet
Fore
SplineSet
760 0 m 25
 760 1350 l 25
 156 983 l 25
EndSplineSet
EndChar

StartChar: two
Encoding: 50 50 18
Width: 1229
VWidth: 2334
GlyphClass: 2
Flags: MW
LayerCount: 2
Back
SplineSet
159 -25 m 1
 159 525 l 1
 71 546 l 1
 71 1479 l 1
 1099 1479 l 1
 1099 -25 l 1
 159 -25 l 1
EndSplineSet
Fore
SplineSet
222 1181 m 1
 289 1290 377 1350 603 1350 c 10
 628 1350 l 18
 892 1350 1024 1242 1024 1064 c 10
 1024 1024 l 18
 1024 998 993.152 898.91 910.557 831.927 c 2
 385.443 406.073 l 2
 285.383 324.927 219 180 205 75 c 1
 1099 75 l 9
EndSplineSet
EndChar

StartChar: three
Encoding: 51 51 19
Width: 1229
VWidth: 2334
GlyphClass: 2
Flags: MW
LayerCount: 2
Fore
SplineSet
232 1190 m 1
 292 1296 447 1350 603 1350 c 10
 628 1350 l 18
 838 1350 958 1248 958 1093 c 10
 958 1052 l 18
 958 974 826 809 631 809 c 1
 382 809 l 9
 628 809 l 18
 892 809 1024 681 1024 457 c 10
 1024 437 l 18
 1024 185 892 50 628 50 c 10
 603 50 l 18
 424 50 205 124 205 305 c 1
EndSplineSet
EndChar

StartChar: four
Encoding: 52 52 20
Width: 1229
VWidth: 1708
GlyphClass: 2
Flags: MW
LayerCount: 2
Back
SplineSet
131 1425 m 5
 1160 1425 l 1
 1160 0 l 1
 131 0 l 5
 131 1425 l 5
EndSplineSet
Fore
SplineSet
925 0 m 25
 925 1352 l 25
 181 427 l 25
 1160 427 l 25
EndSplineSet
EndChar

StartChar: five
Encoding: 53 53 21
Width: 1229
VWidth: 2334
GlyphClass: 2
Flags: MW
LayerCount: 2
Back
SplineSet
-61 1425 m 5
 1292 1425 l 5
 1292 -54 l 5
 -61 -54 l 5
 -61 141 l 5
 482 393 l 5
 482 556 l 5
 -61 845 l 5
 -61 1425 l 5
EndSplineSet
Fore
SplineSet
1075 1325 m 1
 339 1325 l 1
 205 495 l 1
 205 746 439 879 603 879 c 10
 628 879 l 18
 892 879 1024 731 1024 507 c 10
 1024 447 l 18
 1024 189 892 50 628 50 c 10
 529 50 l 18
 362 50 133 156 133 337 c 1
EndSplineSet
EndChar

StartChar: six
Encoding: 54 54 22
Width: 1229
VWidth: 2334
GlyphClass: 2
Flags: MW
LayerCount: 2
Fore
SplineSet
205 453 m 25
 205 974 l 18
 205 1169.02 339 1350 603 1350 c 10
 628 1350 l 18
 814 1350 934 1321 990 1232 c 1
205 487 m 10
 205 427 l 18
 205 169 382 50 603 50 c 10
 628 50 l 18
 892 50 1024 201 1024 427 c 10
 1024 487 l 18
 1024 743 892 879 628 879 c 10
 603 879 l 18
 339 879 205 711 205 487 c 10
EndSplineSet
EndChar

StartChar: seven
Encoding: 55 55 23
Width: 1229
VWidth: 1708
GlyphClass: 2
Flags: MW
LayerCount: 2
Back
SplineSet
128 1485 m 1
 1099 1485 l 1
 1099 0 l 1
 128 0 l 1
 128 1485 l 1
EndSplineSet
Fore
SplineSet
130 1325 m 25
 1063 1325 l 17
 721 861 440 427 317 -45 c 9
EndSplineSet
EndChar

StartChar: eight
Encoding: 56 56 24
Width: 1229
VWidth: 2334
GlyphClass: 2
Flags: MW
LayerCount: 2
Fore
SplineSet
628 1350 m 10
 603 1350 l 18
 405 1350 273 1233 273 1116 c 2
 273 1064 l 2
 273 949 405 809 600 809 c 10
 631 809 l 18
 826 809 958 949 958 1063 c 10
 958 1115 l 18
 958 1233 826 1350 628 1350 c 10
205 447 m 10
 205 395 l 18
 205 177 382 50 603 50 c 10
 628 50 l 18
 892 50 1024 175 1024 395 c 10
 1024 447 l 18
 1024 703 892 809 628 809 c 10
 603 809 l 18
 339 809 205 671 205 447 c 10
EndSplineSet
EndChar

StartChar: nine
Encoding: 57 57 25
Width: 1229
VWidth: 2334
GlyphClass: 2
Flags: MW
LayerCount: 2
Fore
SplineSet
1024 957 m 25
 1024 431 l 18
 1024 189 892 50 628 50 c 10
 603 50 l 18
 418 50 296 80 241 168 c 1
1024 930 m 18
 1024 674 892 553 628 553 c 10
 603 553 l 18
 342 553 205 706 205 930 c 10
 205 1005 l 18
 205 1182 339 1350 603 1350 c 10
 628 1350 l 18
 845 1350 1024 1231 1024 1005 c 10
 1024 930 l 18
EndSplineSet
EndChar

StartChar: less
Encoding: 60 60 28
Width: 1229
VWidth: 1708
GlyphClass: 2
Flags: MW
LayerCount: 2
Back
SplineSet
244 1364 m 5
 986 1364 l 5
 986 -110 l 5
 244 -110 l 5
 244 1364 l 5
EndSplineSet
Fore
SplineSet
1176 1192 m 25
 261 600 l 25
 1176 8 l 25
EndSplineSet
EndChar

StartChar: equal
Encoding: 61 61 29
Width: 1229
VWidth: 1708
GlyphClass: 2
Flags: MW
LayerCount: 2
Fore
SplineSet
204 842 m 29
 1026 842 l 29
204 400 m 29
 1026 400 l 29
EndSplineSet
EndChar

StartChar: greater
Encoding: 62 62 30
Width: 1229
VWidth: 1708
GlyphClass: 2
Flags: MW
LayerCount: 2
Back
SplineSet
244 1364 m 5
 986 1364 l 5
 986 -110 l 5
 244 -110 l 5
 244 1364 l 5
EndSplineSet
Fore
SplineSet
56 8 m 25
 970 600 l 25
 56 1192 l 25
EndSplineSet
EndChar

StartChar: question
Encoding: 63 63 31
Width: 1229
VWidth: 1708
GlyphClass: 2
Flags: MW
LayerCount: 2
Fore
SplineSet
739 32 m 7xe0
 739 -37 680 -86 614 -86 c 7
 550 -86 490 -36 490 32 c 7
 490 94 544 150 614 150 c 7
 679 150 739 102 739 32 c 7xe0
616 340 m 25
 616 480 l 18
 616 553 656 618 721 673 c 2
 911 835 l 2
 980 892 1024 954 1024 1024 c 10
 1024 1095 l 18
 1024 1242 892 1350 628 1350 c 10
 603 1350 l 18
 339 1350 208 1242 205 1095 c 9
EndSplineSet
EndChar

StartChar: at
Encoding: 64 64 32
Width: 1229
VWidth: 1708
GlyphClass: 2
Flags: MW
LayerCount: 2
Fore
SplineSet
835 1000 m 6
 835 1000 986 1001 1084 1001 c 29
 1084 639 l 6
 1084 543 983 435 835 435 c 7
 642 435 581 573 581 734 c 7
 581 895 651 1000 835 1000 c 6
1024 130 m 5
 917 55 745 50 616 50 c 7
 338 50 104 279 104 732 c 7
 104 1056 256 1350 616 1350 c 7
 904 1350 1084 1242 1084 1065 c 6
 1084 340 l 21
EndSplineSet
EndChar

StartChar: B
Encoding: 66 66 33
Width: 1229
VWidth: 1947
GlyphClass: 2
Flags: MW
LayerCount: 2
Fore
SplineSet
1024 337 m 10
 1024 485 l 18
 1024 696 892 787 628 787 c 10
 205 787 l 25
 556 787 l 2
 826 787 952 844 952 1025 c 2
 952 1095 l 2
 952 1278 833 1325 556 1325 c 2
 205 1325 l 1
 205 75 l 1
 628 75 l 2
 892 75 1024 156 1024 337 c 10
EndSplineSet
EndChar

StartChar: C
Encoding: 67 67 34
Width: 1229
VWidth: 1947
GlyphClass: 2
Flags: MW
LayerCount: 2
Fore
SplineSet
1014 315 m 1
 957 154 848 50 654 50 c 2
 621 50 l 2
 287 50 205 380 205 696 c 2
 205 763 l 2
 205 1063 281 1350 620 1350 c 2
 654 1350 l 2
 870 1350 979 1245 1030 1080 c 1
EndSplineSet
EndChar

StartChar: D
Encoding: 68 68 35
Width: 1229
VWidth: 1947
GlyphClass: 2
Flags: MW
LayerCount: 2
Fore
SplineSet
600 1325 m 2
 946 1325 1024 1082 1024 775 c 2
 1024 671 l 2
 1024 362 932 75 600 75 c 2
 205 75 l 1
 205 1325 l 1
 600 1325 l 2
EndSplineSet
EndChar

StartChar: E
Encoding: 69 69 36
Width: 1229
VWidth: 1708
GlyphClass: 2
Flags: MW
LayerCount: 2
Fore
SplineSet
964 787 m 25
 205 787 l 25
1099 1325 m 25
 205 1325 l 25
 205 76 l 25
 1099 76 l 25
EndSplineSet
EndChar

StartChar: F
Encoding: 70 70 37
Width: 1229
VWidth: 1708
GlyphClass: 2
Flags: MW
LayerCount: 2
Fore
SplineSet
964 787 m 25
 205 787 l 25
1099 1325 m 25
 205 1325 l 25
 205 -25 l 25
EndSplineSet
EndChar

StartChar: G
Encoding: 71 71 38
Width: 1229
VWidth: 1947
GlyphClass: 2
Flags: MW
LayerCount: 2
Fore
SplineSet
1030 1080 m 1
 979 1245 870 1350 654 1350 c 2
 627 1350 l 2
 288 1350 205 1063 205 763 c 2
 205 696 l 2
 205 380 294 50 628 50 c 2
 654 50 l 2
 848 50 983 152 1024 257 c 1
 1024 617 l 1
 679 617 l 25
EndSplineSet
EndChar

StartChar: H
Encoding: 72 72 39
Width: 1229
VWidth: 1947
GlyphClass: 2
Flags: MW
LayerCount: 2
Fore
SplineSet
205 732 m 29
 1024 732 l 29
1024 1400 m 29
 1024 0 l 29
205 1400 m 29
 205 0 l 29
EndSplineSet
EndChar

StartChar: I
Encoding: 73 73 40
Width: 1229
VWidth: 1947
GlyphClass: 2
Flags: MW
LayerCount: 2
Fore
SplineSet
200 75 m 25
 1029 75 l 25
200 1325 m 25
 1029 1325 l 1
616 1326 m 1
 616 75 l 9
EndSplineSet
EndChar

StartChar: J
Encoding: 74 74 41
Width: 1229
VWidth: 1947
GlyphClass: 2
Flags: MW
LayerCount: 2
Fore
SplineSet
176 208 m 1
 215 92 311 50 471 50 c 10
 496 50 l 18
 694 50 806 177 806 357 c 10
 806 1325 l 25
386 1325 m 25
 1099 1325 l 25
EndSplineSet
EndChar

StartChar: K
Encoding: 75 75 42
Width: 1229
VWidth: 1947
GlyphClass: 2
Flags: MW
LayerCount: 2
Back
SplineSet
-61 1400 m 5
 1292 1400 l 5
 1292 0 l 5
 -61 0 l 5
 -61 1400 l 5
EndSplineSet
Fore
SplineSet
1160 -141 m 25
 503 797 l 25
1141 1524 m 25
 201 485 l 25
204 1400 m 25
 204 0 l 25
EndSplineSet
EndChar

StartChar: L
Encoding: 76 76 43
Width: 1229
VWidth: 1947
GlyphClass: 2
Flags: MW
LayerCount: 2
Fore
SplineSet
205 1400 m 25
 205 76 l 25
 1099 76 l 25
EndSplineSet
EndChar

StartChar: M
Encoding: 77 77 44
Width: 1229
VWidth: 1947
GlyphClass: 2
Flags: MW
LayerCount: 2
Back
SplineSet
0 1 m 1
 0 1401 l 1
 1229 1401 l 1
 1229 1 l 1
 835 1 l 1
 834 211 l 1
 405 211 l 1
 405 1 l 1
 0 1 l 1
EndSplineSet
Fore
SplineSet
155 -74 m 25
 290 1402 l 25
 616 352 l 25
 939 1402 l 25
 1074 -75 l 25
EndSplineSet
EndChar

StartChar: N
Encoding: 78 78 45
Width: 1229
VWidth: 1947
GlyphClass: 2
Flags: MW
LayerCount: 2
Back
SplineSet
-61 1400 m 5
 1292 1400 l 5
 1292 0 l 5
 -61 0 l 5
 -61 1400 l 5
EndSplineSet
Fore
SplineSet
205 0 m 25
 205 1350 l 25
 1024 52 l 25
 1024 1400 l 25
EndSplineSet
EndChar

StartChar: O
Encoding: 79 79 46
Width: 1229
VWidth: 1947
GlyphClass: 2
Flags: MW
LayerCount: 2
Fore
SplineSet
625 1350 m 6
 966 1350 1024 1062 1024 765 c 6
 1024 696 l 6
 1024 380 957 51 625 50 c 6
 608 50 l 6
 274 50 205 380 205 696 c 6
 205 763 l 6
 205 1063 268 1350 607 1350 c 6
 625 1350 l 6
EndSplineSet
EndChar

StartChar: P
Encoding: 80 80 47
Width: 1229
VWidth: 1947
GlyphClass: 2
Flags: MW
LayerCount: 2
Fore
SplineSet
205 699 m 25
 628 699 l 2
 892 699 1024 792 1024 1002 c 2
 1024 1063 l 2
 1024 1259 906 1325 628 1325 c 2
 205 1325 l 1
 205 0 l 1
EndSplineSet
EndChar

StartChar: Q
Encoding: 81 81 48
Width: 1229
VWidth: 1947
GlyphClass: 2
Flags: MW
LayerCount: 2
Fore
SplineSet
625 1350 m 2
 966 1350 1024 1062 1024 765 c 2
 1024 696 l 2
 1024 380 957 51 625 50 c 2
 608 50 l 2
 274 50 205 380 205 696 c 2
 205 763 l 2
 205 1063 268 1350 607 1350 c 2
 625 1350 l 2
616 399 m 25
 1024 -144 l 25
EndSplineSet
EndChar

StartChar: R
Encoding: 82 82 49
Width: 1229
VWidth: 1947
GlyphClass: 2
Flags: MW
LayerCount: 2
Back
SplineSet
-61 1458 m 5
 1292 1458 l 5
 1292 0 l 5
 -61 0 l 5
 -61 1458 l 5
EndSplineSet
Fore
SplineSet
1145 -102 m 25
 616 712 l 25
205 717 m 25
 628 717 l 2
 892 717 1024 792 1024 973 c 2
 1024 1063 l 2
 1024 1259 906 1325 628 1325 c 2
 205 1325 l 1
 205 0 l 1
EndSplineSet
EndChar

StartChar: S
Encoding: 83 83 50
Width: 1229
VWidth: 2334
GlyphClass: 2
Flags: W
LayerCount: 2
Fore
SplineSet
203 357 m 0
 203 203 371 50 603 50 c 10
 628 50 l 18
 854 50 1024 203 1024 357 c 10
 1024 387 l 18
 1024 491 986 608 805 676 c 2
 419 810 l 2
 344.247 835.95 274 957 274 1033 c 2
 274 1063 l 2
 274 1182 383 1350 612 1350 c 10
 622 1350 l 18
 816 1350 948 1293 1000 1177 c 1
EndSplineSet
EndChar

StartChar: T
Encoding: 84 84 51
Width: 1229
VWidth: 1947
GlyphClass: 2
Flags: MW
LayerCount: 2
Fore
SplineSet
616 0 m 25
 616 1325 l 25
130 1325 m 25
 1099 1325 l 25
EndSplineSet
EndChar

StartChar: U
Encoding: 85 85 52
Width: 1229
VWidth: 1947
GlyphClass: 2
Flags: MW
LayerCount: 2
Fore
SplineSet
205 1400 m 29
 205 387 l 22
 205 206 339 50 603 50 c 14
 628 50 l 22
 892 50 1024 206 1024 387 c 14
 1024 1400 l 29
EndSplineSet
EndChar

StartChar: V
Encoding: 86 86 53
Width: 1229
VWidth: 1708
GlyphClass: 2
Flags: MW
LayerCount: 2
Back
SplineSet
-61 -25 m 5
 -61 1400 l 5
 1292 1400 l 5
 1292 -25 l 5
 -61 -25 l 5
EndSplineSet
Fore
SplineSet
134 1516 m 25
 616 5 l 25
 1107 1536 l 25
EndSplineSet
EndChar

StartChar: W
Encoding: 87 87 54
Width: 1229
VWidth: 1947
GlyphClass: 2
Flags: MW
LayerCount: 2
Back
SplineSet
-61 1400 m 5
 405 1400 l 5
 405 1190 l 5
 834 1190 l 5
 835 1400 l 5
 1292 1400 l 5
 1292 0 l 5
 -61 0 l 5
 -61 1400 l 5
EndSplineSet
Fore
SplineSet
160 1475 m 25
 296 -1 l 25
 616 1049 l 25
 935 -1 l 25
 1071 1476 l 25
EndSplineSet
EndChar

StartChar: X
Encoding: 88 88 55
Width: 1229
VWidth: 1947
GlyphClass: 2
Flags: MW
LayerCount: 2
Back
SplineSet
-61 1400 m 5
 1292 1400 l 5
 1292 0 l 5
 -61 0 l 5
 -61 1400 l 5
EndSplineSet
Fore
SplineSet
1084 1480 m 25
 147 -80 l 25
147 1480 m 25
 1084 -80 l 25
EndSplineSet
EndChar

StartChar: Y
Encoding: 89 89 56
Width: 1229
VWidth: 1947
GlyphClass: 2
Flags: MW
LayerCount: 2
Back
SplineSet
-61 1400 m 5
 1292 1400 l 5
 1292 -25 l 5
 -61 -25 l 5
 -61 1400 l 5
EndSplineSet
Fore
SplineSet
1084 1480 m 17
 616 513 l 1
 616 -50 l 9
147 1480 m 25
 616 513 l 25
EndSplineSet
EndChar

StartChar: Z
Encoding: 90 90 57
Width: 1229
VWidth: 1947
GlyphClass: 2
Flags: MW
LayerCount: 2
Back
SplineSet
130 1425 m 1
 1099 1425 l 1
 1099 -25 l 1
 130 -25 l 1
 130 1425 l 1
EndSplineSet
Fore
SplineSet
130 1325 m 25
 1054 1325 l 25
 177 76 l 25
 1100 76 l 25
EndSplineSet
EndChar

StartChar: bracketleft
Encoding: 91 91 58
Width: 1229
VWidth: 1947
GlyphClass: 2
Flags: MW
LayerCount: 2
Fore
SplineSet
914 1480 m 17
 453 1480 l 1
 453 -80 l 25
 914 -80 l 9
EndSplineSet
EndChar

StartChar: backslash
Encoding: 92 92 59
Width: 1229
VWidth: 1708
GlyphClass: 2
Flags: MW
LayerCount: 2
Fore
SplineSet
1024 -25 m 29
 205 1425 l 29
EndSplineSet
EndChar

StartChar: bracketright
Encoding: 93 93 60
Width: 1229
VWidth: 1947
GlyphClass: 2
Flags: MW
LayerCount: 2
Fore
SplineSet
285 1480 m 17
 778 1480 l 1
 778 -80 l 25
 285 -80 l 9
EndSplineSet
EndChar

StartChar: asciicircum
Encoding: 94 94 61
Width: 1229
VWidth: 1947
GlyphClass: 2
Flags: MW
LayerCount: 2
Back
SplineSet
77 1425 m 5
 1152 1425 l 5
 1152 0 l 5
 77 0 l 5
 77 1425 l 5
EndSplineSet
Fore
SplineSet
261 989 m 25
 616 1385 l 25
 970 989 l 25
EndSplineSet
EndChar

StartChar: underscore
Encoding: 95 95 62
Width: 1229
VWidth: 1947
GlyphClass: 2
Flags: MW
LayerCount: 2
Fore
SplineSet
244 -92 m 29
 986 -92 l 29
EndSplineSet
EndChar

StartChar: grave
Encoding: 96 96 63
Width: 1229
VWidth: 1708
GlyphClass: 2
Flags: MW
HStem: 1404 20G<507.5 534.5>
LayerCount: 2
Fore
SplineSet
788 1147 m 2
 797 1137 800 1125 800 1113 c 3
 800 1098 794 1084 782 1072 c 0
 770 1060 756 1054 742 1054 c 3
 730 1054 719 1058 708 1067 c 2
 464 1257 l 2
 442 1275 430 1304 430 1333 c 3
 430 1358 438 1383 454 1400 c 0
 470 1417 496 1424 520 1424 c 3
 550 1424 578 1411 596 1389 c 2
 788 1147 l 2
EndSplineSet
EndChar

StartChar: a
Encoding: 97 97 64
Width: 1229
VWidth: 1947
GlyphClass: 2
Flags: MW
LayerCount: 2
Fore
SplineSet
1024 561 m 25
 603 561 l 18
 339 561 205 425 205 337 c 10
 205 279 l 18
 205 189 339 50 603 50 c 10
 628 50 l 18
 826 50 1024 214 1024 305 c 10
240 834 m 1
 296 924 416 974 603 974 c 10
 628 974 l 18
 892 974 1024 868 1024 689 c 10
 1024 0 l 25
EndSplineSet
EndChar

StartChar: b
Encoding: 98 98 65
Width: 1229
VWidth: 2334
GlyphClass: 2
Flags: MW
LayerCount: 2
Fore
SplineSet
205 1400 m 25
 205 0 l 25
205 597 m 10
 205 447 l 18
 205 221 382 50 603 50 c 10
 628 50 l 18
 892 50 1024 221 1024 447 c 10
 1024 597 l 18
 1024 821 892 974 628 974 c 10
 603 974 l 18
 339 974 205 821 205 597 c 10
EndSplineSet
EndChar

StartChar: c
Encoding: 99 99 66
Width: 1229
VWidth: 2334
GlyphClass: 2
Flags: MW
LayerCount: 2
Fore
SplineSet
1003 810 m 1
 956 916 831 973 628 973 c 10
 603 973 l 18
 339 973 205 821 205 597 c 10
 205 427 l 18
 205 201 382 50 603 50 c 10
 628 50 l 18
 829 50 952 116 1002 218 c 1
EndSplineSet
EndChar

StartChar: d
Encoding: 100 100 67
Width: 1229
VWidth: 1947
GlyphClass: 2
Flags: MW
LayerCount: 2
Fore
SplineSet
1024 1400 m 25
 1024 0 l 25
205 597 m 10
 205 427 l 18
 205 201 382 50 603 50 c 10
 628 50 l 18
 892 50 1024 201 1024 427 c 10
 1024 597 l 18
 1024 821 892 974 628 974 c 10
 603 974 l 18
 339 974 205 821 205 597 c 10
EndSplineSet
EndChar

StartChar: e
Encoding: 101 101 68
Width: 1229
VWidth: 1947
GlyphClass: 2
Flags: MW
LayerCount: 2
Fore
SplineSet
205 561 m 25
 1024 561 l 25
 1024 659 l 18
 1024 838 892 974 628 974 c 10
 603 974 l 18
 339 974 205 838 205 659 c 10
 205 367 l 18
 205 218 339 50 603 50 c 10
 628 50 l 18
 837 50 964 121 1007 232 c 1
EndSplineSet
EndChar

StartChar: f
Encoding: 102 102 69
Width: 1229
VWidth: 1947
GlyphClass: 2
Flags: MW
LayerCount: 2
Fore
SplineSet
205 856 m 25
 924 856 l 25
1003 1210 m 1
 966 1275 861 1350 760 1350 c 10
 735 1350 l 18
 603 1350 471 1254 471 1144 c 2
 471 0 l 9
EndSplineSet
EndChar

StartChar: g
Encoding: 103 103 70
Width: 1229
VWidth: 1947
GlyphClass: 2
Flags: MW
LayerCount: 2
Fore
SplineSet
352 446 m 1
 280 415 223 347 223 281 c 2
 223 215 l 2
 223 150 276 100 346 68 c 1
977 880 m 1
 1012 926 1067 959 1125 959 c 9
628 98 m 10
 603 98 l 18
 405 98 205 14 205 -87 c 10
 205 -107 l 18
 205 -220 405 -309 603 -309 c 10
 628 -309 l 18
 826 -309 1024 -220 1024 -107 c 10
 1024 -87 l 18
 1024 4 826 98 628 98 c 10
628 974 m 10
 603 974 l 18
 405 974 205 853 205 719 c 10
 205 673 l 18
 205 533 405 391 603 391 c 10
 628 391 l 18
 826 391 1024 532 1024 673 c 10
 1024 719 l 18
 1024 853 826 974 628 974 c 10
EndSplineSet
EndChar

StartChar: h
Encoding: 104 104 71
Width: 1229
VWidth: 2334
GlyphClass: 2
Flags: MW
LayerCount: 2
Fore
SplineSet
1024 0 m 25
 1024 689 l 18
 1024 831 892 974 628 974 c 10
 603 974 l 18
 371 974 205 730.998 205 597 c 10
 205 0 l 25
 205 1400 l 25
EndSplineSet
EndChar

StartChar: k
Encoding: 107 107 74
Width: 1229
VWidth: 1947
GlyphClass: 2
Flags: MW
LayerCount: 2
Back
SplineSet
-61 1425 m 5
 1292 1425 l 5
 1292 0 l 5
 -61 0 l 5
 -61 1425 l 5
EndSplineSet
Fore
SplineSet
1160 -156 m 25
 499 621 l 25
1024 1063 m 25
 208 384 l 25
205 1425 m 25
 205 0 l 25
EndSplineSet
EndChar

StartChar: l
Encoding: 108 108 75
Width: 1229
VWidth: 1947
GlyphClass: 2
Flags: MW
LayerCount: 2
Fore
SplineSet
205 75 m 25
 1024 75 l 25
205 1325 m 25
 616 1325 l 25
 616 75 l 25
EndSplineSet
EndChar

StartChar: m
Encoding: 109 109 76
Width: 1229
VWidth: 2334
GlyphClass: 2
Flags: MW
LayerCount: 2
Fore
SplineSet
1084 0 m 25
 1084 779 l 18
 1084 910 1005 974 886 974 c 10
 871 974 l 18
 727 974 616 822.998 616 689 c 10
 616 0 l 25
 616 779 l 18
 616 910 538 974 418 974 c 10
 402 974 l 18
 259 974 147 822.998 147 689 c 10
 147 0 l 25
 147 1024 l 25
EndSplineSet
EndChar

StartChar: n
Encoding: 110 110 77
Width: 1229
VWidth: 2334
GlyphClass: 2
Flags: W
LayerCount: 2
Fore
SplineSet
1024 0 m 25
 1024 679 l 18
 1024 858 892 974 628 974 c 10
 603 974 l 18
 371 974 205 710.999 205 577 c 10
 205 0 l 25
 205 1024 l 25
EndSplineSet
EndChar

StartChar: o
Encoding: 111 111 78
Width: 1229
VWidth: 1947
GlyphClass: 2
Flags: MW
LayerCount: 2
Fore
SplineSet
641 973 m 2
 911 973 1024 800 1024 562 c 2
 1024 480 l 2
 1024 236 915 50 637 50 c 2
 586 50 l 2
 315 50 205 240 205 481 c 2
 205 561 l 2
 205 798 316 973 584 973 c 2
 641 973 l 2
EndSplineSet
EndChar

StartChar: p
Encoding: 112 112 79
Width: 1229
VWidth: 1947
GlyphClass: 2
Flags: MW
LayerCount: 2
Fore
SplineSet
205 597 m 10
 205 427 l 18
 205 201 382 50 603 50 c 10
 628 50 l 18
 892 50 1024 221 1024 447 c 10
 1024 597 l 18
 1024 821 892 974 628 974 c 10
 603 974 l 18
 339 974 205 821 205 597 c 10
205 1024 m 25
 205 -385 l 25
EndSplineSet
EndChar

StartChar: q
Encoding: 113 113 80
Width: 1229
VWidth: 1947
GlyphClass: 2
Flags: MW
LayerCount: 2
Fore
SplineSet
1024 1024 m 25
 1024 -385 l 25
205 597 m 10
 205 437 l 18
 205 211 382 50 603 50 c 10
 628 50 l 18
 892 50 1024 221 1024 447 c 10
 1024 597 l 18
 1024 821 892 974 628 974 c 10
 603 974 l 18
 339 974 205 821 205 597 c 10
EndSplineSet
EndChar

StartChar: r
Encoding: 114 114 81
Width: 1229
VWidth: 1947
GlyphClass: 2
Flags: MW
LayerCount: 2
Fore
SplineSet
1035 864 m 1
 981 937 889 974 731 974 c 10
 706 974 l 18
 440 974 205 694.001 205 470 c 10
 205 0 l 25
 205 1024 l 25
EndSplineSet
EndChar

StartChar: s
Encoding: 115 115 82
Width: 1229
VWidth: 1947
GlyphClass: 2
Flags: MW
LayerCount: 2
Fore
SplineSet
997 810 m 1
 934 909 782 974 628 974 c 10
 603 974 l 18
 405 974 248 906 248 789 c 2
 248 777 l 2
 248 724 285.265 626.798 395.466 600.657 c 2
 876.534 476.343 l 2
 965.943 453.238 1024 368 1024 301 c 2
 1024 255 l 2
 1024 119 826 50 628 50 c 10
 558 50 l 18
 359 50 205 183 205 317 c 8
EndSplineSet
EndChar

StartChar: t
Encoding: 116 116 83
Width: 1229
VWidth: 1947
GlyphClass: 2
Flags: MW
LayerCount: 2
Back
SplineSet
-61 1425 m 5
 1292 1425 l 5
 1292 -84 l 5
 -61 -84 l 5
 -61 1425 l 5
EndSplineSet
Fore
SplineSet
131 933 m 25
 924 933 l 25
974 210 m 1
 942 138 858 50 731 50 c 10
 706 50 l 18
 561.111 50 439 163 439 299 c 2
 439 316 l 9
 533 1506 l 9
EndSplineSet
EndChar

StartChar: u
Encoding: 117 117 84
Width: 1229
VWidth: 2334
GlyphClass: 2
Flags: MW
LayerCount: 2
Fore
SplineSet
205 1024 m 25
 205 367 l 18
 205 188 308 50 572 50 c 10
 599 50 l 18
 831 50 1024 343.001 1024 477 c 10
 1024 1024 l 25
 1024 0 l 25
EndSplineSet
EndChar

StartChar: v
Encoding: 118 118 85
Width: 1229
VWidth: 1947
GlyphClass: 2
Flags: MW
LayerCount: 2
Back
SplineSet
-61 1024 m 5
 1292 1024 l 5
 1292 -25 l 5
 -61 -25 l 5
 -61 1024 l 5
EndSplineSet
Fore
SplineSet
71 1327 m 25
 616 50 l 25
 1160 1325 l 25
EndSplineSet
EndChar

StartChar: w
Encoding: 119 119 86
Width: 1229
VWidth: 1947
GlyphClass: 2
Flags: MW
LayerCount: 2
Back
SplineSet
-61 1024 m 5
 405 1024 l 5
 405 949 l 5
 834 949 l 5
 835 1024 l 5
 1292 1024 l 5
 1292 0 l 5
 -61 0 l 5
 -61 1024 l 5
EndSplineSet
Fore
SplineSet
150 1099 m 25
 286 49 l 25
 616 855 l 25
 945 49 l 25
 1081 1100 l 25
EndSplineSet
EndChar

StartChar: x
Encoding: 120 120 87
Width: 1229
VWidth: 1947
GlyphClass: 2
Flags: MW
LayerCount: 2
Back
SplineSet
-61 1024 m 5
 1292 1024 l 5
 1292 0 l 5
 -61 0 l 5
 -61 1024 l 5
EndSplineSet
Fore
SplineSet
1084 1098 m 25
 147 -74 l 25
147 1098 m 25
 1084 -75 l 25
EndSplineSet
EndChar

StartChar: y
Encoding: 121 121 88
Width: 1229
VWidth: 1947
GlyphClass: 2
Flags: MW
LayerCount: 2
Back
SplineSet
-61 -410 m 5
 -61 1024 l 5
 1292 1024 l 5
 1292 -410 l 5
 -61 -410 l 5
EndSplineSet
Fore
SplineSet
1160 1325 m 1
 684 -110 l 2
 645.92 -224.8 559.5 -294 430 -294 c 2
 400 -294 l 2
 325.5 -294 219 -250 177 -191 c 2
 162 -170 l 1
756 109 m 9
 71 1270 l 25
EndSplineSet
EndChar

StartChar: z
Encoding: 122 122 89
Width: 1229
VWidth: 1947
GlyphClass: 2
Flags: MW
LayerCount: 2
Back
SplineSet
129 1049 m 1
 1097 1049 l 1
 1097 -25 l 1
 129 -25 l 1
 129 1049 l 1
EndSplineSet
Fore
SplineSet
145 949 m 25
 1044 949 l 25
 162 75 l 25
 1100 75 l 25
EndSplineSet
EndChar

StartChar: braceleft
Encoding: 123 123 90
Width: 1229
VWidth: 1947
GlyphClass: 2
Flags: MW
LayerCount: 2
Fore
SplineSet
944 1480 m 21
 854 1480 l 6
 704 1480 584 1392 584 1242 c 6
 584 970 l 6
 584 862 506 732 354 732 c 6
 284 732 l 5
 354 732 l 6
 506 732 584 570 584 430 c 6
 584 158 l 6
 584 8 704 -80 854 -80 c 14
 944 -80 l 13
EndSplineSet
EndChar

StartChar: bar
Encoding: 124 124 91
Width: 1229
VWidth: 1947
GlyphClass: 2
Flags: MW
LayerCount: 2
Fore
SplineSet
615 -77 m 29
 615 1477 l 29
EndSplineSet
EndChar

StartChar: braceright
Encoding: 125 125 92
Width: 1229
VWidth: 1947
GlyphClass: 2
Flags: MW
LayerCount: 2
Fore
SplineSet
284 1480 m 17
 364 1480 l 2
 514 1480 634 1392 634 1242 c 2
 634 970 l 2
 634 862 712 732 864 732 c 2
 944 732 l 1
 864 732 l 2
 712 732 634 570 634 430 c 2
 634 158 l 2
 634 8 514 -80 364 -80 c 10
 284 -80 l 9
EndSplineSet
EndChar

StartChar: asciitilde
Encoding: 126 126 93
Width: 1229
VWidth: 1947
GlyphClass: 2
Flags: MW
LayerCount: 2
Fore
SplineSet
293 832 m 17
 324 913.5 411 977 451 977 c 10
 466 977 l 18
 495 977 557 963 589 936 c 2
 664 873 l 2
 691 851 737 833 764 833 c 10
 779 833 l 18
 840 833 913.5 891 938 977 c 9
EndSplineSet
EndChar

StartChar: cent
Encoding: 162 162 96
Width: 1229
VWidth: 2334
GlyphClass: 2
Flags: MW
LayerCount: 2
Fore
SplineSet
445 -110 m 25
 826 1182 l 25
1003 830 m 1
 956 936 831 975 628 975 c 10
 603 975 l 18
 339 975 205 821 205 597 c 10
 205 427 l 18
 205 201 382 48 603 48 c 10
 628 48 l 18
 829 48 952 86 1002 188 c 1
EndSplineSet
EndChar

StartChar: sterling
Encoding: 163 163 97
Width: 1229
VWidth: 1947
GlyphClass: 2
Flags: MW
LayerCount: 2
Fore
SplineSet
128 731 m 17
 905 731 l 9
960 1232 m 1
 887 1312 760 1350 628 1350 c 10
 603 1350 l 18
 339 1350 205 1242 205 1083 c 10
 205 1044 l 18
 205 993 250 917.5 290 862.5 c 2
 409 710 l 2
 449.479 658.125 471 570 471 516 c 10
 471 470 l 18
 471 305 245.742 116.076 118 59 c 2
 71 38 l 1
 118 59 l 2
 235.447 111.476 312.5 124 428 124 c 10
 470 124 l 18
 521 124 575.5 114 610.5 96.5 c 2
 661.5 71 l 2
 688.9 57.2998 759 50 788 50 c 10
 839 50 l 18
 933 50 1004 76 1052 115 c 9
EndSplineSet
EndChar

StartChar: euro
Encoding: 8364 8364 98
Width: 1229
VWidth: 1947
GlyphClass: 2
Flags: MW
LayerCount: 2
Fore
SplineSet
998.079 300 m 0
 943.56 153.803 870.761 50 685 50 c 2
 658 50 l 2
 364 50 295 224 295 366 c 2
 295 1063 l 2
 295 1160 372 1350 657 1350 c 2
 685 1350 l 2
 901.108 1350 973.554 1234.33 1019.61 1074 c 0
649 535 m 25
 100 535 l 25
840 857 m 25
 145 857 l 25
EndSplineSet
EndChar

StartChar: yen
Encoding: 165 165 99
Width: 1229
VWidth: 1947
GlyphClass: 2
Flags: MW
LayerCount: 2
Back
SplineSet
0 1400 m 1
 1229 1400 l 1
 1229 -160 l 1
 0 -160 l 1
 0 1400 l 1
EndSplineSet
Fore
SplineSet
201 123 m 17
 1024 123 l 9
201 382 m 17
 1024 382 l 9
1084 1480 m 17
 616 513 l 1
 616 -185 l 9
147 1480 m 25
 616 513 l 25
EndSplineSet
EndChar

StartChar: section
Encoding: 167 167 101
Width: 1229
VWidth: 1947
GlyphClass: 2
Flags: MW
LayerCount: 2
Fore
SplineSet
313 81 m 1
 369 -9 506 -94 645 -94 c 10
 669 -94 l 18
 848 -94 964 22 964 149 c 10
 964 172 l 18
 964 293 806 385 627 385 c 10
 604 385 l 18
913 1320 m 1
 856 1406 721 1490 586 1490 c 10
 562 1490 l 18
 383 1490 275 1368 275 1247 c 10
 275 1224 l 18
 275 1098 425 996 604 996 c 10
 627 996 l 18
628 996 m 10
 603 996 l 18
 357 996 205 857 205 723 c 10
 205 677 l 18
 205 537 339 385 603 385 c 10
 628 385 l 18
 870 385 1024 536 1024 677 c 10
 1024 723 l 18
 1024 857 858 996 628 996 c 10
EndSplineSet
EndChar

StartChar: copyright
Encoding: 169 169 103
Width: 1229
VWidth: 1947
GlyphClass: 2
Flags: MW
LayerCount: 2
Fore
SplineSet
614 1114 m 7
 947 1114 1118 863 1118 593 c 7
 1118 332 947 70 614 70 c 7
 285 70 111 323 111 593 c 7
 111 866 290 1114 614 1114 c 7
792 431 m 5
 754 391 698 364 624 364 c 7
 474 364 394 470 394 592 c 7
 394 717 477 820 624 820 c 7
 698 820 754 795 792 755 c 5
EndSplineSet
EndChar

StartChar: ordfeminine
Encoding: 170 170 104
Width: 1229
VWidth: 1947
GlyphClass: 2
Flags: MW
LayerCount: 2
Fore
SplineSet
205 319 m 17
 1024 319 l 9
886 1013 m 25
 598 1013 l 18
 418 1013 330 898 330 823 c 10
 330 784 l 18
 330 707 418 593 598 593 c 10
 617 593 l 18
 751 593 886 785 886 863 c 10
353 1267 m 1
 391 1343 471 1382 598 1382 c 10
 617 1382 l 18
 797 1382 886 1274 886 1122 c 10
 886 536 l 25
EndSplineSet
EndChar

StartChar: guillemotleft
Encoding: 171 171 105
Width: 1229
VWidth: 1947
GlyphClass: 2
Flags: MW
LayerCount: 2
Fore
SplineSet
926 124 m 29
 746 425 l 29
 746 512 l 29
 926 814 l 29
506 124 m 29
 326 425 l 29
 326 512 l 29
 506 814 l 29
EndSplineSet
EndChar

StartChar: logicalnot
Encoding: 172 172 106
Width: 1229
VWidth: 1708
GlyphClass: 2
Flags: MW
LayerCount: 2
Fore
SplineSet
204 600 m 29
 894 600 l 29
 894 214 l 29
EndSplineSet
EndChar

StartChar: softhyphen
Encoding: 173 173 107
Width: 1229
VWidth: 1947
GlyphClass: 2
Flags: MW
LayerCount: 2
Fore
SplineSet
376 600 m 29
 854 600 l 29
EndSplineSet
EndChar

StartChar: registered
Encoding: 174 174 108
Width: 1229
VWidth: 1947
GlyphClass: 2
Flags: MW
LayerCount: 2
Fore
SplineSet
798 342 m 25
 640 590 l 25
468 592 m 25
 632 592 l 2
 735 592 786 639 786 708 c 2
 786 733 l 2
 786 795 735 838 632 838 c 2
 468 838 l 1
 468 342 l 1
614 1114 m 3
 947 1114 1118 865 1118 595 c 3
 1118 334 947 70 614 70 c 3
 285 70 111 325 111 595 c 3
 111 868 290 1114 614 1114 c 3
EndSplineSet
EndChar

StartChar: degree
Encoding: 176 176 110
Width: 1229
VWidth: 1947
GlyphClass: 2
Flags: MW
LayerCount: 2
Fore
SplineSet
615 1333 m 7
 764 1333 840 1229 840 1108 c 7
 840 991 764 882 615 882 c 7
 468 882 390 987 390 1108 c 7
 390 1231 470 1333 615 1333 c 7
EndSplineSet
EndChar

StartChar: plusminus
Encoding: 177 177 111
Width: 1229
VWidth: 1947
GlyphClass: 2
Flags: MW
LayerCount: 2
Fore
SplineSet
204 158 m 25
 1026 158 l 25
615 419 m 25
 615 1273 l 25
204 862 m 25
 1026 862 l 25
EndSplineSet
EndChar

StartChar: twosuperior
Encoding: 178 178 112
Width: 1229
VWidth: 2334
GlyphClass: 2
Flags: MW
LayerCount: 2
Back
SplineSet
434 -25 m 5
 434 963 l 5
 384 987 l 5
 384 1479 l 5
 1076 1479 l 5
 1076 -25 l 5
 434 -25 l 5
EndSplineSet
Fore
SplineSet
454 1244 m 1
 487 1304 528 1365 636 1365 c 10
 649 1365 l 18
 774 1365 837 1315 837 1217 c 10
 837 1195 l 18
 837 1163 814.474 1090.5 773 1052 c 2
 564 858 l 2
 518 811 456 711 444 650 c 1
 901 650 l 9
EndSplineSet
EndChar

StartChar: threesuperior
Encoding: 179 179 113
Width: 1229
VWidth: 2334
GlyphClass: 2
Flags: MW
LayerCount: 2
Fore
SplineSet
443 1264 m 1
 469 1322 539 1360 609 1360 c 10
 621 1360 l 18
 710 1360 769 1297 769 1212 c 10
 769 1189 l 18
 769 1129 702 1022 614 1022 c 2
 510 1022 l 9
 621 1022 l 18
 723 1022 799 949 799 856 c 10
 799 835 l 18
 799 714 740 632 621 632 c 10
 609 632 l 18
 528 632 431 712 431 812 c 1
EndSplineSet
EndChar

StartChar: micro
Encoding: 181 181 115
Width: 1229
VWidth: 2334
GlyphClass: 2
Flags: MW
LayerCount: 2
Fore
SplineSet
146 -348 m 17
 199 -237 205 -174.001 205 -25 c 10
 205 1024 l 25
 205 397 l 18
 205 218 339 50 603 50 c 10
 628 50 l 18
 861 50 1024 262.994 1024 397 c 10
 1024 1024 l 17
 1024 99 l 2
 1024 36 1033 0 1069 -40 c 9
EndSplineSet
EndChar

StartChar: paragraph
Encoding: 182 182 116
Width: 1229
VWidth: 1947
GlyphClass: 2
Flags: MW
LayerCount: 2
Fore
SplineSet
525 840 m 25
 525 1320 l 25
445 840 m 25
 445 1320 l 25
343 890 m 25
 343 1260 l 25
1024 0 m 25
 1024 1400 l 25
 616 1400 l 25
616 759 m 25
 511 759 l 2
 379 759 202 795 202 1057 c 2
 202 1127 l 2
 202 1313 371 1400 511 1400 c 2
 616 1400 l 1
 616 0 l 1
EndSplineSet
EndChar

StartChar: periodcentered
Encoding: 183 183 117
Width: 1229
VWidth: 1947
GlyphClass: 2
Flags: MW
LayerCount: 2
Fore
SplineSet
712 747 m 4
 712 695 672 650 614 650 c 4
 558 650 517 695 517 747 c 4
 517 798 556 844 614 844 c 4
 671 844 712 799 712 747 c 4
EndSplineSet
EndChar

StartChar: onesuperior
Encoding: 185 185 119
Width: 1229
VWidth: 1708
GlyphClass: 2
Flags: MW
LayerCount: 2
Back
SplineSet
311 857 m 5
 519 1045 l 5
 519 1180 l 5
 467 1236 l 5
 659 1425 l 5
 919 1425 l 5
 919 627 l 5
 311 627 l 5
 311 857 l 5
EndSplineSet
Fore
SplineSet
698 641 m 25
 698 1374 l 25
 353 1204 l 25
EndSplineSet
EndChar

StartChar: ordmasculine
Encoding: 186 186 120
Width: 1229
VWidth: 1947
GlyphClass: 2
Flags: MW
LayerCount: 2
Fore
SplineSet
205 319 m 17
 1024 319 l 9
616 1385 m 3
 846.139 1385 926 1219 926 992 c 3
 926 763 834.002 598 616 598 c 3
 392.89 598 295 763 295 992 c 3
 295 1219 392.991 1385 616 1385 c 3
EndSplineSet
EndChar

StartChar: guillemotright
Encoding: 187 187 121
Width: 1229
VWidth: 1947
GlyphClass: 2
Flags: MW
LayerCount: 2
Fore
SplineSet
304 124 m 29
 484 425 l 29
 484 512 l 29
 304 814 l 29
724 124 m 29
 904 425 l 29
 904 512 l 29
 724 814 l 29
EndSplineSet
EndChar

StartChar: OE
Encoding: 338 338 122
Width: 1229
VWidth: 1947
GlyphClass: 2
Flags: MW
LayerCount: 2
Fore
SplineSet
1099 75 m 17
 663 75 l 1
 663 1325 l 1
 1099 1325 l 1
966 732 m 1
 662 732 l 1
205 1096 m 2
 205 1189 273 1325 426 1325 c 2
 457 1325 l 2
 593 1325 663 1194 663 1096 c 2
 663 284 l 2
 663 190 593 75 457 75 c 2
 426 75 l 2
 273 75 205 193 205 284 c 10
 205 1096 l 2
EndSplineSet
EndChar

StartChar: oe
Encoding: 339 339 123
Width: 1229
VWidth: 1947
GlyphClass: 2
Flags: MW
LayerCount: 2
Fore
SplineSet
1024 249 m 3
 1024 145 962 50 820 50 c 3
 685 50 616 151 616 249 c 2
 616 775 l 2
 616 869 685 974 820 974 c 3
 964 974 1024 880 1024 775 c 10
 1024 542 l 1
 616 542 l 1
205 775 m 2
 205 878 269 974 412 974 c 3
 546 974 616 873 616 775 c 2
 616 249 l 2
 616 155 546 50 412 50 c 3
 265 50 205 145 205 249 c 10
 205 775 l 2
EndSplineSet
EndChar

StartChar: AE
Encoding: 198 198 132
Width: 1229
VWidth: 1947
GlyphClass: 2
Flags: MW
LayerCount: 2
Back
SplineSet
0 0 m 1
 0 1425 l 1
 1229 1425 l 1
 1229 0 l 1
 0 0 l 1
EndSplineSet
Fore
SplineSet
133 -90 m 17
 407 1168 l 2
 428 1263 478 1325 637 1325 c 10
 723 1325 l 25
1099 75 m 17
 723 75 l 1
 723 1325 l 1
 1099 1325 l 1
1024 764 m 1
 313 764 l 1
EndSplineSet
EndChar

StartChar: Eth
Encoding: 208 208 142
Width: 1229
VWidth: 1947
GlyphClass: 2
Flags: MW
LayerCount: 2
Fore
SplineSet
80 756 m 25
 573 756 l 25
586 1325 m 2
 937.266 1325 1022 1071 1022 763 c 2
 1022 700 l 2
 1022 375 928.583 75 586 75 c 2
 295 75 l 1
 295 1325 l 1
 586 1325 l 2
EndSplineSet
EndChar

StartChar: multiply
Encoding: 215 215 149
Width: 1229
VWidth: 1708
GlyphClass: 2
Flags: MW
LayerCount: 2
Fore
SplineSet
906 309 m 29
 324 923 l 29
324 309 m 29
 906 923 l 29
EndSplineSet
EndChar

StartChar: Thorn
Encoding: 222 222 156
Width: 1229
VWidth: 1947
GlyphClass: 2
Flags: MW
LayerCount: 2
Fore
SplineSet
205 445 m 25
 628 445 l 2
 892 445 1024 596 1024 777 c 2
 1024 910 l 6
 1024 1089 906 1230 628 1230 c 2
 205 1230 l 1
205 1540 m 1
 205 0 l 1
EndSplineSet
EndChar

StartChar: germandbls
Encoding: 223 223 157
Width: 1229
VWidth: 1947
GlyphClass: 2
Flags: MW
LayerCount: 2
Fore
SplineSet
205 -388 m 1
 205 1096 l 2
 205 1274 339 1350 603 1350 c 2
 628 1350 l 2
 834 1350 952 1255 952 1093 c 2
 952 1055 l 2
 952 874 820 787 556 787 c 2
 529 787 l 25
 628 787 l 18
 892 787 1024 664 1024 485 c 10
 1024 377 l 18
 1024 196 892 50 694 50 c 2
 683 50 l 2
 603 50 543 61 487 97 c 1
EndSplineSet
EndChar

StartChar: ae
Encoding: 230 230 164
Width: 1229
VWidth: 1947
GlyphClass: 2
Flags: MW
LayerCount: 2
Fore
SplineSet
1054 249 m 3
 1054 145 972 50 830 50 c 3
 695 50 616 151 616 249 c 2
 616 775 l 2
 616 870 695 974 830 974 c 3
 976 974 1054 880 1054 775 c 10
 1054 542 l 1
 408 542 l 2
 255 542 177 432 177 328 c 2
 177 249 l 18
 177 145 255 50 402 50 c 3
 536 50 616 155 616 249 c 2
 616 775 l 2
 616 873 536 974 402 974 c 3
 259 974 177 879 177 775 c 0
EndSplineSet
EndChar

StartChar: eth
Encoding: 240 240 174
Width: 1229
VWidth: 1947
GlyphClass: 2
Flags: W
VStem: 182 558<220.939 427 497 723.211>
LayerCount: 2
Fore
SplineSet
208 1099 m 25
 1024 1350 l 25
1024 462 m 25
 1024 620 l 18
 1024 909 656 1252 339 1432 c 9
205 477 m 10
 205 447 l 18
 205 221 382 50 603 50 c 10
 628 50 l 18
 892 50 1024 221 1024 447 c 10
 1024 477 l 18
 1024 657 892 849 628 849 c 10
 603 849 l 18
 339 849 205 666 205 477 c 10
EndSplineSet
EndChar

StartChar: divide
Encoding: 247 247 181
Width: 1229
VWidth: 1947
GlyphClass: 2
Flags: MW
LayerCount: 2
Fore
SplineSet
739 960 m 3xe0
 739 891 680 842 614 842 c 3
 550 842 490 892 490 960 c 3
 490 1022 544 1078 614 1078 c 3
 679 1078 739 1030 739 960 c 3xe0
739 242 m 3xe0
 739 173 680 124 614 124 c 3
 550 124 490 174 490 242 c 3
 490 304 544 360 614 360 c 3
 679 360 739 312 739 242 c 3xe0
204 600 m 25
 1026 600 l 25
EndSplineSet
EndChar

StartChar: oslash
Encoding: 248 248 182
Width: 1229
VWidth: 1947
GlyphClass: 2
Flags: MW
LayerCount: 2
Fore
SplineSet
641 973 m 2
 911 973 1000 800 1000 562 c 2
 1000 470 l 2
 1000 226 915 50 637 50 c 2
 586 50 l 2
 315 50 232 230 232 471 c 2
 232 561 l 2
 232 798 316 973 584 973 c 2
 641 973 l 2
201 -48 m 25
 1026 1062 l 25
EndSplineSet
EndChar

StartChar: thorn
Encoding: 254 254 188
Width: 1229
VWidth: 1947
GlyphClass: 2
Flags: MW
LayerCount: 2
Fore
SplineSet
205 -387 m 25
 205 1400 l 25
637 974 m 2
 920 974 1024 784.986 1024 533 c 2
 1024 493 l 2
 1024 240 920.667 50 631 50 c 2
 601 50 l 2
 358 50 205 197 205 384 c 2
 205 625 l 2
 205 807.957 358 974 596 974 c 2
 637 974 l 2
EndSplineSet
EndChar

StartChar: minus
Encoding: 8722 8722 190
Width: 1229
VWidth: 1708
GlyphClass: 2
Flags: MW
LayerCount: 2
Fore
SplineSet
205 600 m 25
 1024 600 l 25
EndSplineSet
EndChar

StartChar: quoteleft
Encoding: 8216 8216 192
Width: 1229
VWidth: 1947
GlyphClass: 2
Flags: W
HStem: 1371 55<566.409 601.285>
VStem: 349 194<1000.19 1103.37>
LayerCount: 2
Fore
SplineSet
496 1082 m 17
 497 1214 530 1400 760 1426 c 9
 775 1371 l 17
 722 1352 618 1291 618 1223 c 3
 618 1202 628 1181 652 1160 c 9
 496 1082 l 17
496 1082 m 3
 496 1134 536 1180 594 1180 c 3
 649 1180 691 1135 691 1082 c 3
 691 1031 652 985 594 985 c 3
 537 985 496 1030 496 1082 c 3
EndSplineSet
EndChar

StartChar: gravemodifier
Encoding: 715 715 193
Width: 1229
VWidth: 2334
GlyphClass: 2
Flags: MW
LayerCount: 2
Fore
SplineSet
546 1647 m 29
 744 1438 l 29
EndSplineSet
EndChar

StartChar: acute
Encoding: 180 180 194
Width: 1229
VWidth: 1947
GlyphClass: 2
Flags: MW
LayerCount: 2
Fore
SplineSet
715 1587 m 29
 516 1308 l 29
EndSplineSet
EndChar

StartChar: circumflex
Encoding: 710 710 195
Width: 1229
VWidth: 1947
GlyphClass: 2
Flags: MW
LayerCount: 2
Back
SplineSet
154 732 m 5
 154 1638 l 5
 1076 1638 l 5
 1076 732 l 5
 154 732 l 5
EndSplineSet
Fore
SplineSet
362 1460 m 25
 616 1600 l 25
 870 1460 l 25
EndSplineSet
EndChar

StartChar: tilde
Encoding: 732 732 196
Width: 1229
VWidth: 1947
GlyphClass: 2
Flags: MW
LayerCount: 2
Fore
SplineSet
336 1502 m 21
 353 1528 l 6
 382.702 1573.43 444 1612 478 1612 c 14
 494 1612 l 22
 529 1612 583 1595 605 1576 c 6
 624 1559 l 6
 646 1539 700 1522 735 1522 c 14
 752 1522 l 22
 784.5 1522 849.769 1556.18 880 1608 c 6
 894 1632 l 13
EndSplineSet
EndChar

StartChar: macronmodifier
Encoding: 713 713 197
Width: 1229
VWidth: 1947
GlyphClass: 2
Flags: MW
LayerCount: 2
Fore
SplineSet
841 1538 m 5
 388 1538 l 5
EndSplineSet
EndChar

StartChar: breve
Encoding: 728 728 198
Width: 1229
VWidth: 1947
GlyphClass: 2
Flags: MW
LayerCount: 2
Fore
SplineSet
847 1593 m 4
 788 1523 705 1480 613 1480 c 7
 522 1480 441 1523 383 1592 c 4
EndSplineSet
EndChar

StartChar: dotaccent
Encoding: 729 729 199
Width: 1229
VWidth: 1947
GlyphClass: 2
Flags: W
HStem: 1437 180<533.688 687.766>
VStem: 521 180<1449.96 1604.04>
LayerCount: 2
Fore
SplineSet
521 1527 m 31
 521 1577 560 1617 610 1617 c 31
 660 1617 701 1577 701 1527 c 31
 701 1477 660 1437 610 1437 c 31
 560 1437 521 1477 521 1527 c 31
EndSplineSet
EndChar

StartChar: dieresis
Encoding: 168 168 200
Width: 1229
VWidth: 1947
GlyphClass: 2
Flags: W
HStem: 1455 176<325.117 471.475 758.683 904.135>
VStem: 313 171<1466.61 1620.09> 747 169<1466.82 1619.9>
LayerCount: 2
Fore
SplineSet
484 1544 m 0
 484 1497 445 1455 399 1455 c 0
 353 1455 313 1494 313 1544 c 0
 313 1596 355 1631 398 1631 c 0
 447 1631 484 1590 484 1544 c 0
916 1544 m 0
 916 1492 875 1455 832 1455 c 0
 787 1455 747 1495 747 1544 c 0
 747 1594 787 1631 832 1631 c 0
 873 1631 916 1596 916 1544 c 0
EndSplineSet
EndChar

StartChar: ring
Encoding: 730 730 202
Width: 1229
VWidth: 1947
GlyphClass: 2
Flags: MW
LayerCount: 2
Fore
SplineSet
405 1425 m 31
 405 1537 493 1627 605 1627 c 31
 717 1627 809 1537 809 1425 c 31
 809 1313 717 1223 605 1223 c 31
 493 1223 405 1313 405 1425 c 31
515 1425 m 31
 515 1374 555 1333 606 1333 c 31
 657 1333 699 1374 699 1425 c 31
 699 1476 657 1517 606 1517 c 31
 555 1517 515 1476 515 1425 c 31
EndSplineSet
EndChar

StartChar: cedilla
Encoding: 184 184 203
Width: 1229
VWidth: 1947
GlyphClass: 2
Flags: MW
LayerCount: 2
Fore
SplineSet
652 18 m 21
 652 0 l 5
 643 -132 l 5
 784 -132 841 -191 841 -270 c 7
 841 -354 746 -411 655 -411 c 31
 571 -411 506 -379 454 -334 c 13
EndSplineSet
EndChar

StartChar: ogonek
Encoding: 731 731 204
Width: 1229
VWidth: 1947
GlyphClass: 2
Flags: MW
LayerCount: 2
Fore
SplineSet
761 -290 m 5
 734 -314 l 6
 711 -333 682 -345 650 -345 c 15
 579 -345 522 -287 522 -216 c 23
 522 -181 536 -149 558 -126 c 14
 684 0 l 29
 684 72 l 29
EndSplineSet
EndChar

StartChar: caron
Encoding: 711 711 205
Width: 1229
VWidth: 1947
GlyphClass: 2
Flags: MW
LayerCount: 2
Back
SplineSet
154 1422 m 5
 154 1736 l 5
 1076 1736 l 5
 1076 1422 l 5
 154 1422 l 5
EndSplineSet
Fore
SplineSet
362 1600 m 25
 616 1460 l 25
 870 1600 l 25
EndSplineSet
EndChar

StartChar: dotlessi
Encoding: 305 305 206
Width: 1229
VWidth: 1947
GlyphClass: 2
Flags: W
LayerCount: 2
Fore
SplineSet
205 75 m 25
 1024 75 l 25
205 949 m 25
 616 949 l 25
 616 75 l 25
EndSplineSet
EndChar

StartChar: currency
Encoding: 164 164 210
Width: 1229
VWidth: 1947
GlyphClass: 2
Flags: MW
LayerCount: 2
Fore
SplineSet
1043.5 340.9 m 17
 855.4 556.5 l 1
373.6 1007.5 m 1
 185.5 1223.1 l 9
185.5 340.9 m 17
 374.7 557.6 l 1
855.4 1007.5 m 1
 1043.5 1223.1 l 9
624.4 1107.6 m 18
 779.5 1107.6 933.5 974 933.5 799.6 c 10
 933.5 768.8 l 18
 933.5 576 779.5 461.9 624.4 461.9 c 10
 604.6 461.9 l 18
 449.5 461.9 295.5 588 295.5 768.8 c 10
 295.5 799.6 l 18
 295.5 974 449.5 1107.6 604.6 1107.6 c 10
 624.4 1107.6 l 18
EndSplineSet
EndChar

StartChar: brokenbar
Encoding: 166 166 211
Width: 1229
VWidth: 1947
GlyphClass: 2
Flags: MW
LayerCount: 2
Fore
SplineSet
615 -77 m 21
 615 600 l 5
615 832 m 5
 615 1477 l 13
EndSplineSet
EndChar

StartChar: onequarter
Encoding: 188 188 212
Width: 1229
VWidth: 1708
GlyphClass: 2
Flags: MW
LayerCount: 2
Back
SplineSet
245 636 m 17
 -286 757 l 1
 -286 942 l 1
 96 1167 l 1
 93 1296 l 1
 31 1384 l 1
 226 1569 l 1
 613 1569 l 1
 614 1200 l 17
 961 1668 l 9
 1357 1473 l 17
 816 575 l 1
 1238 575 l 1
 1238 -209 l 1
 638 -209 l 1
 638 274 l 9
 355 -207 l 25
 -106 -69 l 25
 245 636 l 17
EndSplineSet
Fore
SplineSet
1024 -209 m 29
 1024 525 l 29
 650 41 l 29
 1187 41 l 29
256 803 m 25
 256 1504 l 25
 -144 1319 l 25
205 -25 m 25
 1024 1425 l 25
EndSplineSet
EndChar

StartChar: onehalf
Encoding: 189 189 213
Width: 1229
VWidth: 1708
GlyphClass: 2
Flags: MW
LayerCount: 2
Back
SplineSet
94 1167 m 1
 93 1296 l 1
 31 1384 l 1
 226 1569 l 1
 613 1569 l 1
 614 1200 l 17
 927 1662 l 1
 1327 1521 l 1
 817 619 l 1
 1582 619 l 1
 1582 -345 l 1
 681 -345 l 5
 681 117 l 5
 310 -279 l 1
 -167 -84 l 1
 230 597 l 1
 -286 757 l 1
 -286 942 l 1
 94 1167 l 1
EndSplineSet
Fore
SplineSet
718 372 m 1
 757 432 804 473 928 473 c 10
 943 473 l 18
 1088 473 1160 423 1160 325 c 10
 1160 303 l 18
 1160 271 1132 201 1087 160 c 2
 820 -49 l 2
 759 -97 732 -153 710 -210 c 1
 1185 -210 l 9
256 803 m 25
 256 1504 l 25
 -144 1319 l 25
205 -25 m 25
 1024 1425 l 25
EndSplineSet
EndChar

StartChar: threequarters
Encoding: 190 190 214
Width: 1229
VWidth: 1708
GlyphClass: 2
Flags: MW
LayerCount: 2
Back
SplineSet
390 -177 m 5
 -68 -174 l 5
 -68 1674 l 5
 953 1674 l 5
 1297 1458 l 5
 882 575 l 5
 1238 575 l 5
 1238 -209 l 5
 638 -209 l 5
 638 280 l 5
 390 -177 l 5
EndSplineSet
Fore
SplineSet
1024 -209 m 25
 1024 525 l 25
 650 41 l 25
 1187 41 l 25
85 1432 m 1
 120 1491 193 1529 285 1529 c 10
 301 1529 l 18
 419 1529 476 1450 476 1365 c 10
 476 1390 l 18
 476 1314 429 1255 312 1255 c 2
 175 1255 l 9
 321 1255 l 18
 477 1255 516 1208 516 1085 c 10
 516 1074 l 18
 516 953 457 864 301 864 c 10
 285 864 l 18
 179 864 69 926 69 1026 c 1
205 -25 m 25
 1024 1425 l 25
EndSplineSet
EndChar

StartChar: Lslash
Encoding: 321 321 216
Width: 1229
VWidth: 1947
GlyphClass: 2
Flags: MW
LayerCount: 2
Fore
SplineSet
80 512 m 25
 881 730 l 25
288 1400 m 25
 288 76 l 25
 1099 76 l 25
EndSplineSet
EndChar

StartChar: lslash
Encoding: 322 322 257
Width: 1229
VWidth: 1947
GlyphClass: 2
Flags: MW
LayerCount: 2
Fore
SplineSet
205 75 m 29
 1024 75 l 29
616 92 m 21
205 1325 m 29
 616 1325 l 29
 616 75 l 29
174 512 m 29
 1058 730 l 29
EndSplineSet
EndChar

StartChar: dotlessj
Encoding: 567 567 260
Width: 1229
VWidth: 1947
GlyphClass: 2
Flags: MW
LayerCount: 2
Fore
SplineSet
388 -70 m 3
 388 -167 506.378 -294 637 -294 c 27
 768.754 -294 889 -189 889 -69 c 2
 889 949 l 25
 351 949 l 25
EndSplineSet
EndChar

StartChar: eng
Encoding: 331 331 261
Width: 1229
VWidth: 2334
GlyphClass: 2
Flags: MW
LayerCount: 2
Fore
SplineSet
424 -188 m 1
 475 -231 553 -294 636 -294 c 10
 711 -294 l 18
 908 -294 1024 -130 1024 12 c 10
 1024 679 l 18
 1024 858 892 974 628 974 c 10
 603 974 l 18
 371 974 205 691.003 205 557 c 10
 205 0 l 25
 205 1024 l 25
EndSplineSet
EndChar

StartChar: ellipsis
Encoding: 8230 8230 266
Width: 1229
VWidth: 1947
GlyphClass: 2
Flags: MW
LayerCount: 2
Fore
SplineSet
1099 113 m 3
 1099 71 1066 32 1022 32 c 3
 980 32 946 70 946 113 c 3
 946 155 979 193 1022 193 c 3
 1067 193 1099 152 1099 113 c 3
282 113 m 3
 282 71 250 32 206 32 c 3
 163 32 130 70 130 113 c 3
 130 155 162 193 206 193 c 3
 250 193 282 152 282 113 c 3
692 113 m 3
 692 71 659 32 615 32 c 3
 573 32 540 70 540 113 c 3
 540 155 572 193 615 193 c 3
 660 193 692 152 692 113 c 3
EndSplineSet
EndChar

StartChar: uparrow
Encoding: 8593 8593 267
Width: 1229
VWidth: 1708
GlyphClass: 2
Flags: W
LayerCount: 2
Fore
SplineSet
1076 -99 m 5
 154 -99 l 5
 154 1044 l 5
 1076 1044 l 5
 1076 -99 l 5
975 620 m 29
 615 991 l 29
 255 620 l 29
615 991 m 29
 615 177 l 29
EndSplineSet
EndChar

StartChar: downarrow
Encoding: 8595 8595 268
Width: 1229
VWidth: 1708
GlyphClass: 2
Flags: W
LayerCount: 2
Fore
SplineSet
1076 124 m 1
 154 124 l 1
 154 1331 l 1
 1076 1331 l 1
 1076 124 l 1
975 580 m 25
 615 177 l 25
 255 580 l 25
615 177 m 25
 615 991 l 25
EndSplineSet
EndChar

StartChar: spaceopenbox
Encoding: 9251 9251 269
Width: 1229
VWidth: 1708
GlyphClass: 2
Flags: MW
LayerCount: 2
Fore
SplineSet
1024 124 m 25
 1024 -92 l 25
 205 -92 l 25
 205 124 l 25
EndSplineSet
EndChar

StartChar: foursuperior
Encoding: 8308 8308 271
Width: 1229
VWidth: 1947
GlyphClass: 2
Flags: MW
LayerCount: 2
Back
SplineSet
205 1425 m 1
 1024 1425 l 1
 1024 544 l 1
 205 544 l 1
 205 1425 l 1
EndSplineSet
Fore
SplineSet
821 544 m 25
 821 1402 l 25
 250 839 l 25
 1215 839 l 25
EndSplineSet
EndChar

StartChar: Eng
Encoding: 330 330 273
Width: 1229
VWidth: 2334
GlyphClass: 2
Flags: MW
LayerCount: 2
Fore
SplineSet
424 -188 m 1
 462 -246 553 -294 636 -294 c 10
 711 -294 l 18
 908 -294 1024 -130 1024 12 c 10
 1024 1023 l 18
 1024 1202 892 1350 628 1350 c 10
 603 1350 l 18
 371 1350 205 1052 205 918 c 10
 205 0 l 25
 205 1400 l 25
EndSplineSet
EndChar

StartChar: dcroat
Encoding: 273 273 274
Width: 1229
VWidth: 1947
GlyphClass: 2
Flags: W
LayerCount: 2
Fore
SplineSet
567 1230 m 25
 1161 1230 l 25
964 1400 m 25
 964 0 l 25
205 597 m 10
 205 427 l 18
 205 201 352 50 573 50 c 10
 598 50 l 18
 862 50 964 201 964 427 c 10
 964 597 l 18
 964 821 862 974 598 974 c 10
 573 974 l 18
 309 974 205 821 205 597 c 10
EndSplineSet
EndChar

StartChar: bullet
Encoding: 8226 8226 280
Width: 1229
VWidth: 1947
GlyphClass: 2
Flags: W
HStem: 516 303<516.141 711.916>
VStem: 469 291<564.375 772.875>
LayerCount: 2
Fore
SplineSet
760 669 m 3
 760 594 694 516 614 516 c 3
 533 516 469 596 469 669 c 3
 469 746 537 819 614 819 c 3
 691 819 760 746 760 669 c 3
EndSplineSet
EndChar

StartChar: florin
Encoding: 402 402 281
Width: 1229
VWidth: 1947
GlyphClass: 2
Flags: MW
LayerCount: 2
Fore
SplineSet
1054 1250 m 1
 1011 1314 971 1350 874 1350 c 11
 755.938 1350 675.462 1273 665 1131 c 10
 576 -77 l 18
 566.012 -212.575 480.406 -311 357 -311 c 3
 276 -311 192 -252 175 -170 c 1
278 827 m 25
 1024 827 l 25
EndSplineSet
EndChar

StartChar: dagger
Encoding: 8224 8224 282
Width: 1229
VWidth: 1947
GlyphClass: 2
Flags: MW
LayerCount: 2
Fore
SplineSet
615 1425 m 17
 615 -386 l 9
71 949 m 25
 1160 949 l 25
EndSplineSet
EndChar

StartChar: daggerdbl
Encoding: 8225 8225 283
Width: 1229
VWidth: 1947
GlyphClass: 2
Flags: MW
LayerCount: 2
Fore
SplineSet
71 89 m 25
 1160 89 l 25
615 1425 m 25
 615 -386 l 25
71 949 m 25
 1160 949 l 25
EndSplineSet
EndChar

StartChar: trademark
Encoding: 8482 8482 284
Width: 1229
VWidth: 1947
GlyphClass: 2
Flags: MW
LayerCount: 2
Back
SplineSet
130 466 m 1
 130 1400 l 1
 1099 1400 l 1
 1099 466 l 1
 890 466 l 1
 890 519 l 1
 743 519 l 1
 743 466 l 1
 130 466 l 1
EndSplineSet
Fore
SplineSet
585 411 m 25
 585 1401 l 25
 805 615 l 25
 1024 1401 l 25
 1023 411 l 25
330 463 m 25
 330 1340 l 25
126 1340 m 25
 581 1340 l 25
EndSplineSet
EndChar

StartChar: Ecyrillic
Encoding: 1028 1028 290
Width: 1229
VWidth: 1947
GlyphClass: 2
Flags: W
LayerCount: 2
Fore
SplineSet
968.079 300 m 4
 913.559 153.803 810.76 50.5595 625 50 c 6
 608 50 l 6
 274 50 205 380 205 696 c 6
 205 763 l 6
 205 1063 268 1350 607 1350 c 6
 625 1350 l 6
 841.109 1350 943.554 1234.33 989.606 1074 c 4
215 756 m 25
 673 755 l 25
EndSplineSet
EndChar

StartChar: Becyrillic
Encoding: 1041 1041 298
Width: 1229
VWidth: 1947
GlyphClass: 2
Flags: MW
LayerCount: 2
Fore
SplineSet
205 787 m 25
 588 787 l 2
 852 787 1024 666 1024 485 c 2
 1024 387 l 2
 1024 208 866 75 588 75 c 2
 205 75 l 1
 205 1325 l 9
 1024 1325 l 25
EndSplineSet
EndChar

StartChar: Gecyrillic
Encoding: 1043 1043 299
Width: 1229
VWidth: 1947
GlyphClass: 2
Flags: MW
LayerCount: 2
Fore
SplineSet
205 0 m 25
 205 1325 l 25
 1099 1325 l 25
EndSplineSet
EndChar

StartChar: Decyrillic
Encoding: 1044 1044 300
Width: 1229
VWidth: 1947
GlyphClass: 2
Flags: MW
LayerCount: 2
Back
SplineSet
0 1425 m 1
 1229 1425 l 1
 1229 118 l 1
 1048 -190 l 1
 182 -190 l 1
 0 118 l 1
 0 1425 l 1
EndSplineSet
Fore
SplineSet
170 -162 m 17
 170 76 l 9
 1059 76 l 17
 1059 -162 l 9
260 76 m 17
 469 966 l 2
 496 1078 637.676 1325 823 1325 c 10
 955 1325 l 17
 955 76 l 9
EndSplineSet
EndChar

StartChar: Zhecyrillic
Encoding: 1046 1046 302
Width: 1229
VWidth: 1947
GlyphClass: 2
Flags: MW
LayerCount: 2
Back
SplineSet
0 1400 m 5
 1229 1400 l 5
 1229 0 l 5
 0 0 l 5
 0 1400 l 5
EndSplineSet
Fore
SplineSet
1120 -85 m 25
 820 697 l 25
111 -85 m 25
 410 697 l 25
111 1500 m 25
 616 215 l 25
 1120 1500 l 25
616 1350 m 25
 616 -140 l 25
EndSplineSet
EndChar

StartChar: Zecyrillic
Encoding: 1047 1047 303
Width: 1229
VWidth: 1947
GlyphClass: 2
Flags: MW
LayerCount: 2
Fore
SplineSet
232 1190 m 1
 290 1296 418 1350 572 1350 c 10
 628 1350 l 18
 826 1350 958 1258 958 1103 c 10
 958 1062 l 18
 958 918 796 809 601 809 c 2
 382 809 l 9
 628 809 l 18
 892 809 1024 671 1024 447 c 10
 1024 427 l 18
 1024 207 892 50 628 50 c 10
 572 50 l 18
 393 50 205 156 205 337 c 1
EndSplineSet
EndChar

StartChar: Iicyrillic
Encoding: 1048 1048 304
Width: 1229
VWidth: 1947
GlyphClass: 2
Flags: MW
LayerCount: 2
Back
SplineSet
0 1400 m 1
 1229 1400 l 1
 1229 0 l 1
 0 0 l 1
 0 1400 l 1
EndSplineSet
Fore
SplineSet
1024 0 m 25
 1024 1350 l 25
 205 49 l 25
 205 1400 l 25
EndSplineSet
EndChar

StartChar: Elcyrillic
Encoding: 1051 1051 307
Width: 1229
VWidth: 1947
GlyphClass: 2
Flags: MW
LayerCount: 2
Back
SplineSet
0 1425 m 1
 1229 1425 l 1
 1229 0 l 1
 0 0 l 1
 0 1425 l 1
EndSplineSet
Fore
SplineSet
119 -99 m 16
 445 966 l 2
 491 1107 644 1277 823 1325 c 9
 1024 1325 l 25
 1024 0 l 25
EndSplineSet
EndChar

StartChar: Pecyrillic
Encoding: 1055 1055 311
Width: 1229
VWidth: 1947
GlyphClass: 2
Flags: MW
LayerCount: 2
Fore
SplineSet
205 0 m 25
 205 1325 l 25
 1024 1325 l 25
 1024 0 l 25
EndSplineSet
EndChar

StartChar: Ucyrillic
Encoding: 1059 1059 315
Width: 1229
VWidth: 1947
GlyphClass: 2
Flags: MW
LayerCount: 2
Back
SplineSet
0 1400 m 1
 1229 1400 l 5
 1229 -40 l 5
 0 -40 l 1
 0 1400 l 1
EndSplineSet
Fore
SplineSet
1084 1480 m 16
 622 214 l 2
 570.067 71.6911 476 51 379 50 c 2
 339 50 l 2
 314 50 264.341 59.8432 249 71 c 2
 205 103 l 9
147 1480 m 25
 709 459 l 25
EndSplineSet
EndChar

StartChar: Efcyrillic
Encoding: 1060 1060 316
Width: 1229
VWidth: 1947
GlyphClass: 2
Flags: W
LayerCount: 2
Fore
SplineSet
746 1252 m 2
 873 1252 1024 1031 1024 784 c 2
 1024 727 l 2
 1024 465 900 209 746 209 c 2
 487 209 l 2
 333 209 205 465 205 727 c 2
 205 783 l 2
 205 1032 336 1252 485 1252 c 2
 746 1252 l 2
616 1425 m 25
 616 -25 l 25
EndSplineSet
EndChar

StartChar: Tsecyrillic
Encoding: 1062 1062 318
Width: 1229
VWidth: 1947
GlyphClass: 2
Flags: MW
LayerCount: 2
Back
SplineSet
0 1400 m 1
 1129 1400 l 1
 1129 -302 l 1
 0 -302 l 1
 0 1400 l 1
EndSplineSet
Fore
SplineSet
922 75 m 17
 1075 75 l 9
 940 -189 l 25
205 1400 m 25
 205 75 l 25
 923 75 l 17
 923 1400 l 9
EndSplineSet
EndChar

StartChar: Checyrillic
Encoding: 1063 1063 319
Width: 1229
VWidth: 1947
GlyphClass: 2
Flags: MW
LayerCount: 2
Fore
SplineSet
1024 512 m 25
 603 512 l 2
 339 512 205 683 205 864 c 2
 205 1400 l 17
1024 1400 m 1
 1024 0 l 1
EndSplineSet
EndChar

StartChar: Shacyrillic
Encoding: 1064 1064 320
Width: 1229
VWidth: 1947
GlyphClass: 2
Flags: MW
LayerCount: 2
Fore
SplineSet
616 1184 m 17
 616 75 l 9
205 1400 m 25
 205 75 l 25
 1024 75 l 25
 1024 1400 l 25
EndSplineSet
EndChar

StartChar: Shchacyrillic
Encoding: 1065 1065 321
Width: 1229
VWidth: 1947
GlyphClass: 2
Flags: MW
LayerCount: 2
Back
SplineSet
0 1400 m 1
 1179 1400 l 5
 1179 -302 l 5
 0 -302 l 1
 0 1400 l 1
EndSplineSet
Fore
SplineSet
616 1184 m 17
 616 75 l 9
1022 75 m 25
 1143 75 l 25
 988 -189 l 25
205 1400 m 25
 205 75 l 25
 1024 75 l 17
 1024 1400 l 9
EndSplineSet
EndChar

StartChar: Hardsigncyrillic
Encoding: 1066 1066 322
Width: 1229
VWidth: 1947
GlyphClass: 2
Flags: W
HStem: 1405 20G<60 922>
VStem: 0 922<-60 680>
LayerCount: 2
Back
SplineSet
81 1425 m 1
 1229 1425 l 1
 1229 -60 l 1
 0 -60 l 1
 0 712 l 1
 206 714 l 1
 206 959 l 1
 81 959 l 1
 81 1425 l 1
EndSplineSet
Fore
SplineSet
396 747 m 25
 697 747 l 2
 872 747 1024 656 1024 475 c 2
 1024 367 l 2
 1024 188 872 75 697 75 c 2
 396 75 l 1
 396 1325 l 9
 205 1325 l 25
 21 896 l 25
EndSplineSet
EndChar

StartChar: Yericyrillic
Encoding: 1067 1067 323
Width: 1229
VWidth: 1947
GlyphClass: 2
Flags: MW
LayerCount: 2
Fore
SplineSet
1024 1400 m 17
 1024 0 l 9
205 797 m 25
 324 797 l 2
 588 797 722 676 722 495 c 2
 722 407 l 2
 722 228 602 75 324 75 c 2
 205 75 l 1
 205 1400 l 1
EndSplineSet
EndChar

StartChar: Softsigncyrillic
Encoding: 1068 1068 324
Width: 1229
VWidth: 1947
GlyphClass: 2
Flags: MW
LayerCount: 2
Fore
SplineSet
205 747 m 25
 628 747 l 2
 892 747 1024 626 1024 445 c 2
 1024 377 l 2
 1024 198 906 75 628 75 c 2
 205 75 l 1
 205 1400 l 1
EndSplineSet
EndChar

StartChar: Ereversedcyrillic
Encoding: 1069 1069 325
Width: 1229
VWidth: 1947
GlyphClass: 2
Flags: MW
LayerCount: 2
Fore
SplineSet
239.961 1071 m 0
 286.912 1233.33 390.855 1350 607 1350 c 2
 625 1350 l 2
 966 1350 1024 1062 1024 765 c 2
 1024 696 l 2
 1024 380 957 51 625 50 c 2
 608 50 l 2
 414.663 50 310.119 160.574 256.355 315 c 0
559 756 m 25
 1017 755 l 25
EndSplineSet
EndChar

StartChar: IUcyrillic
Encoding: 1070 1070 326
Width: 1229
VWidth: 1947
GlyphClass: 2
Flags: MW
LayerCount: 2
Fore
SplineSet
211 700 m 25
 456 700 l 25
205 1400 m 17
 205 0 l 9
757 1350 m 2
 953 1350 1024 1073 1024 761 c 2
 1024 711 l 2
 1024 393 961 50 763 50 c 2
 737 50 l 2
 543 50 477 403 477 706 c 2
 477 757 l 2
 477 1069 544 1350 743 1350 c 2
 757 1350 l 2
EndSplineSet
EndChar

StartChar: IAcyrillic
Encoding: 1071 1071 327
Width: 1229
VWidth: 1947
GlyphClass: 2
Flags: MW
LayerCount: 2
Back
SplineSet
0 1458 m 1
 1229 1458 l 1
 1229 0 l 1
 0 0 l 1
 0 1458 l 1
EndSplineSet
Fore
SplineSet
86 -102 m 25
 616 662 l 25
1024 667 m 25
 603 667 l 2
 339 667 205 772 205 953 c 2
 205 1043 l 2
 205 1239 325 1325 603 1325 c 2
 1024 1325 l 1
 1024 0 l 1
EndSplineSet
EndChar

StartChar: becyrillic
Encoding: 1073 1073 329
Width: 1229
VWidth: 2334
GlyphClass: 2
Flags: HMWO
LayerCount: 2
Fore
SplineSet
1024 1386 m 21
 906 1338 789 1325 614 1325 c 7
 411 1325 205 1222 205 953 c 6
 205 510 l 13
205 597 m 14
 205 447 l 22
 205 221 382 50 603 50 c 14
 628 50 l 22
 892 50 1024 221 1024 447 c 14
 1024 597 l 22
 1024 821 892 974 628 974 c 14
 603 974 l 22
 339 974 205 821 205 597 c 14
EndSplineSet
EndChar

StartChar: vecyrillic
Encoding: 1074 1074 330
Width: 1229
VWidth: 2334
GlyphClass: 2
Flags: MW
LayerCount: 2
Fore
SplineSet
205 75 m 17
 630 75 l 18
 892 75 1024 186 1024 321 c 10
 1024 330 l 18
 1024 463 891 549 628 549 c 2
 205 549 l 1
 551 549 l 2
 815 549 947 657 947 772 c 3
 947 887 815 949 551 949 c 2
 205 949 l 9
 205 75 l 17
EndSplineSet
EndChar

StartChar: gecyrillic
Encoding: 1075 1075 331
Width: 1229
VWidth: 1947
GlyphClass: 2
Flags: MW
LayerCount: 2
Fore
SplineSet
235 810 m 1
 297 909 406 974 558 974 c 10
 645 974 l 18
 882 974 981 912 981 779 c 2
 981 767 l 2
 981 681 934.723 620.172 855.532 600.614 c 2
 348.468 475.386 l 2
 265.809 454.972 205 384 205 317 c 2
 205 271 l 2
 205 129 360 50 558 50 c 10
 678 50 l 18
 879 50 1024 203 1024 337 c 8
EndSplineSet
EndChar

StartChar: decyrillic
Encoding: 1076 1076 332
Width: 1229
VWidth: 1947
GlyphClass: 2
Flags: MW
LayerCount: 2
Back
SplineSet
0 1049 m 1
 1229 1049 l 1
 1229 238 l 1
 1023 -190 l 1
 205 -190 l 1
 0 238 l 1
 0 1049 l 1
EndSplineSet
Fore
SplineSet
205 -162 m 17
 205 76 l 9
 1024 76 l 17
 1024 -162 l 9
320 76 m 17
 442 605 l 2
 471.328 732.169 626.274 949 823 949 c 10
 915 949 l 17
 915 76 l 9
EndSplineSet
EndChar

StartChar: zhecyrillic
Encoding: 1078 1078 334
Width: 1229
VWidth: 1947
GlyphClass: 2
Flags: MW
LayerCount: 2
Back
SplineSet
0 1400 m 1
 1229 1400 l 1
 1229 0 l 1
 0 0 l 1
 0 1400 l 1
EndSplineSet
Fore
SplineSet
1098 -142 m 25
 776 494 l 25
131 -142 m 25
 448 494 l 25
201 1025 m 25
 616 149 l 25
 1024 1025 l 25
616 1024 m 25
 616 -154 l 25
EndSplineSet
EndChar

StartChar: zecyrillic
Encoding: 1079 1079 335
Width: 1229
VWidth: 1947
GlyphClass: 2
Flags: MW
LayerCount: 2
Fore
SplineSet
233 813 m 1
 291 919 398 975 552 975 c 10
 678 975 l 18
 876 975 958 878 958 788 c 10
 958 777 l 18
 958 666 866 560 671 560 c 2
 471 560 l 9
 688 560 l 18
 952 560 1024 450 1024 334 c 10
 1024 314 l 18
 1024 201 952 50 688 50 c 10
 563 50 l 18
 384 50 225 135 205 275 c 1
EndSplineSet
EndChar

StartChar: iicyrillic
Encoding: 1080 1080 336
Width: 1229
VWidth: 1947
GlyphClass: 2
Flags: MW
LayerCount: 2
Back
SplineSet
0 1023 m 1
 1229 1023 l 1
 1229 0 l 1
 0 0 l 1
 0 1023 l 1
EndSplineSet
Fore
SplineSet
1024 0 m 25
 1024 973 l 25
 205 49 l 25
 205 1023 l 25
EndSplineSet
EndChar

StartChar: kacyrillic
Encoding: 1082 1082 338
Width: 1229
VWidth: 1947
GlyphClass: 2
Flags: MW
LayerCount: 2
Back
SplineSet
0 1325 m 1
 1229 1325 l 1
 1229 0 l 1
 0 0 l 1
 0 1325 l 1
EndSplineSet
Fore
SplineSet
1163 -125 m 25
 522 458 l 25
1024 981 m 25
 205 126 l 25
205 1023 m 25
 205 -25 l 25
EndSplineSet
EndChar

StartChar: elcyrillic
Encoding: 1083 1083 339
Width: 1229
VWidth: 1947
GlyphClass: 2
Flags: MW
LayerCount: 2
Back
SplineSet
0 1048 m 1
 1229 1048 l 1
 1229 0 l 1
 0 0 l 1
 0 1048 l 1
EndSplineSet
Fore
SplineSet
119 -99 m 16
 387 604 l 2
 433 745 637.676 948 823 948 c 10
 1024 948 l 25
 1024 0 l 25
EndSplineSet
EndChar

StartChar: emcyrillic
Encoding: 1084 1084 340
Width: 1229
VWidth: 1947
GlyphClass: 2
Flags: MW
LayerCount: 2
Back
SplineSet
0 1 m 1
 0 1025 l 1
 1229 1025 l 1
 1229 1 l 1
 835 1 l 1
 834 76 l 1
 405 76 l 1
 405 1 l 1
 0 1 l 1
EndSplineSet
Fore
SplineSet
170 -74 m 25
 299 1026 l 25
 616 120 l 25
 922 1026 l 25
 1059 -75 l 25
EndSplineSet
EndChar

StartChar: encyrillic
Encoding: 1085 1085 341
Width: 1229
VWidth: 1947
GlyphClass: 2
Flags: MW
LayerCount: 2
Fore
SplineSet
205 470 m 25
 1024 470 l 25
1024 1023 m 25
 1024 0 l 25
205 1023 m 25
 205 0 l 25
EndSplineSet
EndChar

StartChar: tecyrillic
Encoding: 1090 1090 346
Width: 1229
VWidth: 1947
GlyphClass: 2
Flags: MW
LayerCount: 2
Fore
SplineSet
616 0 m 25
 616 949 l 25
130 949 m 25
 1099 949 l 25
EndSplineSet
EndChar

StartChar: efcyrillic
Encoding: 1092 1092 348
Width: 1229
VWidth: 1947
GlyphClass: 2
Flags: MW
LayerCount: 2
Fore
SplineSet
715 893 m 2
 1024 893 1103 723 1103 509 c 2
 1103 447 l 2
 1103 227 1024 50 711 50 c 2
 511 50 l 2
 205 50 128 231 128 448 c 2
 128 509 l 2
 128 721 205 893 509 893 c 2
 715 893 l 2
616 1049 m 25
 616 -386 l 25
EndSplineSet
EndChar

StartChar: tsecyrillic
Encoding: 1094 1094 350
Width: 1229
VWidth: 2334
GlyphClass: 2
Flags: MW
LayerCount: 2
Fore
SplineSet
205 1024 m 25
 205 377 l 18
 205 198 308 50 572 50 c 10
 599 50 l 18
 831 50 1024 352.998 1024 487 c 10
 1024 1024 l 25
 1024 199 l 21
 1077 134 1087 58 1087 -6 c 7
 1087 -64 1002 -188 908 -228 c 13
EndSplineSet
EndChar

StartChar: checyrillic
Encoding: 1095 1095 351
Width: 1229
VWidth: 1947
GlyphClass: 2
Flags: MW
LayerCount: 2
Fore
SplineSet
205 1024 m 25
 205 729 l 18
 205 550 308 397 572 397 c 10
 649 397 l 18
 881 397 1024 704.999 1024 839 c 10
 1024 1024 l 25
 1024 0 l 17
EndSplineSet
EndChar

StartChar: shacyrillic
Encoding: 1096 1096 352
Width: 1229
VWidth: 2334
GlyphClass: 2
Flags: MW
LayerCount: 2
Fore
SplineSet
205 1024 m 25
 205 245 l 18
 205 126 282 50 373 50 c 10
 388 50 l 18
 498 50 616 233 616 367 c 10
 616 1024 l 25
 616 245 l 18
 616 144 678 50 784 50 c 10
 799 50 l 18
 918 50 1024 233.002 1024 367 c 10
 1024 1024 l 25
 1024 0 l 25
EndSplineSet
EndChar

StartChar: shchacyrillic
Encoding: 1097 1097 353
Width: 1229
VWidth: 2334
GlyphClass: 2
Flags: MW
LayerCount: 2
Fore
SplineSet
205 1024 m 25
 205 245 l 18
 205 126 282 50 373 50 c 10
 388 50 l 18
 498 50 616 233 616 367 c 10
 616 1024 l 25
 616 245 l 18
 616 144 678 50 784 50 c 10
 799 50 l 18
 918 50 1024 233.002 1024 367 c 10
 1024 1024 l 25
 1024 199 l 17
 1077 134 1087 58 1087 -6 c 3
 1087 -64 1002 -188 908 -228 c 9
EndSplineSet
EndChar

StartChar: hardsigncyrillic
Encoding: 1098 1098 354
Width: 1229
VWidth: 1947
GlyphClass: 2
Flags: MW
LayerCount: 2
Back
SplineSet
87 1023 m 5
 1229 1023 l 1
 1229 -60 l 1
 0 -60 l 5
 0 246 l 5
 206 248 l 5
 206 572 l 5
 87 572 l 5
 87 1023 l 5
EndSplineSet
Fore
SplineSet
406 566 m 25
 668 566 l 18
 865 566 1024 490 1024 357 c 2
 1024 309 l 2
 1024 174 866.003 75 668 75 c 10
 406 75 l 25
 406 948 l 25
 206 948 l 25
 22 462 l 25
EndSplineSet
EndChar

StartChar: yericyrillic
Encoding: 1099 1099 355
Width: 1229
VWidth: 1947
GlyphClass: 2
Flags: MW
LayerCount: 2
Fore
SplineSet
1024 0 m 25
 1024 1023 l 25
205 1023 m 25
 205 75 l 25
 403 75 l 18
 601 75 769 174 769 309 c 2
 769 347 l 2
 769 480 617 561 403 561 c 10
 205 561 l 25
EndSplineSet
EndChar

StartChar: softsigncyrillic
Encoding: 1100 1100 356
Width: 1229
VWidth: 1947
GlyphClass: 2
Flags: MW
LayerCount: 2
Fore
SplineSet
205 1048 m 25
 205 75 l 25
 628 75 l 18
 826 75 1024 174 1024 309 c 2
 1024 347 l 2
 1024 480 842 561 628 561 c 10
 205 561 l 25
EndSplineSet
EndChar

StartChar: ereversedcyrillic
Encoding: 1101 1101 357
Width: 1229
VWidth: 1947
GlyphClass: 2
Flags: MW
LayerCount: 2
Fore
SplineSet
405 512 m 25
 1002 512 l 25
215 800 m 1
 262 906 378 973 580 973 c 10
 657 973 l 18
 867 973 1003 821 1003 597 c 10
 1003 447 l 18
 1003 221 834 50 657 50 c 10
 580 50 l 18
 381 50 268 116 218 218 c 1
EndSplineSet
EndChar

StartChar: iucyrillic
Encoding: 1102 1102 358
Width: 1229
VWidth: 1947
GlyphClass: 2
Flags: W
HStem: 50 923<600.62 892.008>
VStem: 469 555<212.969 810.98>
LayerCount: 2
Fore
SplineSet
757 974 m 2
 953 974 1024 755 1024 533 c 2
 1024 498 l 2
 1024 304 961 50 763 50 c 2
 737 50 l 2
 543 50 477 302 477 494 c 2
 477 530 l 2
 477 752 544 974 743 974 c 2
 757 974 l 2
211 512 m 25
 469 512 l 25
205 1023 m 25
 205 0 l 25
EndSplineSet
EndChar

StartChar: iacyrillic
Encoding: 1103 1103 359
Width: 1229
VWidth: 1947
GlyphClass: 2
Flags: W
LayerCount: 2
Fore
SplineSet
176 18 m 25
 631 470 l 25
1024 0 m 25
 1024 948 l 25
 583 948 l 18
 385 948 205 879 205 744 c 2
 205 693 l 2
 205 561 319 470 583 470 c 10
 1024 470 l 25
EndSplineSet
EndChar

StartChar: ecyrillic
Encoding: 1108 1108 362
Width: 1229
VWidth: 1947
GlyphClass: 2
Flags: W
LayerCount: 2
Fore
SplineSet
829 512 m 25
 231 512 l 25
1027 800 m 1
 980 906 854 973 652 973 c 10
 586 973 l 18
 342 973 230 801 230 577 c 10
 230 457 l 18
 230 252 333 50 586 50 c 10
 652 50 l 18
 852 50 975 116 1024 218 c 1
EndSplineSet
EndChar

StartChar: numero
Encoding: 8470 8470 372
Width: 1229
VWidth: 1947
Flags: MW
LayerCount: 2
Back
SplineSet
0 1400 m 1
 1229 1400 l 5
 1229 0 l 5
 0 0 l 1
 0 1400 l 1
EndSplineSet
Fore
SplineSet
934 1257 m 3
 1024.05 1257 1075 1123 1075 919 c 3
 1075 713 1024.02 546 934 546 c 3
 847.977 546 793 713 793 919 c 3
 793 1123 855.482 1257 934 1257 c 3
205 0 m 25
 205 1405 l 25
 616 -5 l 25
 616 1400 l 25
EndSplineSet
EndChar

StartChar: caroncomb
Encoding: 780 780 377
Width: 1229
VWidth: 1947
Flags: MW
LayerCount: 2
Back
SplineSet
154 1422 m 5
 154 1736 l 5
 1076 1736 l 5
 1076 1422 l 5
 154 1422 l 5
EndSplineSet
Fore
SplineSet
362 1600 m 25
 616 1460 l 25
 870 1600 l 25
EndSplineSet
EndChar

StartChar: gravecomb
Encoding: 768 768 379
Width: 1229
VWidth: 2334
Flags: MW
LayerCount: 2
Fore
SplineSet
546 1647 m 29
 744 1438 l 29
EndSplineSet
EndChar

StartChar: acutecomb
Encoding: 769 769 380
Width: 1229
VWidth: 2334
Flags: MW
LayerCount: 2
Fore
SplineSet
684 1647 m 29
 486 1438 l 29
EndSplineSet
EndChar

StartChar: tildecomb
Encoding: 771 771 381
Width: 1229
VWidth: 1947
Flags: MW
LayerCount: 2
Fore
SplineSet
336 1502 m 17
 353 1528 l 2
 382.702 1573.43 444 1612 478 1612 c 10
 494 1612 l 18
 529 1612 583 1595 605 1576 c 2
 624 1559 l 2
 646 1539 700 1522 735 1522 c 10
 752 1522 l 18
 784.5 1522 849.769 1556.18 880 1608 c 2
 894 1632 l 9
EndSplineSet
EndChar

StartChar: hookabovecomb
Encoding: 777 777 382
Width: 1229
VWidth: 1947
Flags: MW
LayerCount: 2
Fore
SplineSet
622 1255 m 5
 622 1387 l 5
 763 1387 820 1416 820 1495 c 7
 820 1579 718 1606 634 1606 c 31
 553 1606 495 1590 433 1549 c 13
EndSplineSet
EndChar

StartChar: dotbelowcomb
Encoding: 803 803 383
Width: 1229
VWidth: 2334
Flags: MW
LayerCount: 2
Fore
SplineSet
526 -253 m 27
 526 -203 565 -163 615 -163 c 27
 665 -163 706 -203 706 -253 c 27
 706 -303 665 -343 615 -343 c 27
 565 -343 526 -303 526 -253 c 27
EndSplineSet
EndChar

StartChar: commaturnedabovecmb
Encoding: 786 786 396
Width: 1229
VWidth: 1947
Flags: MW
LayerCount: 2
Fore
SplineSet
652 18 m 21
 652 0 l 5
 643 -132 l 5
 784 -132 841 -191 841 -270 c 7
 841 -354 746 -411 655 -411 c 31
 571 -411 506 -379 454 -334 c 13
EndSplineSet
EndChar

StartChar: Hbar
Encoding: 294 294 400
Width: 1229
VWidth: 1947
Flags: W
LayerCount: 2
Fore
SplineSet
80 1170 m 25
 1149 1170 l 25
292 732 m 25
 937 732 l 25
937 1400 m 25
 937 0 l 25
292 1400 m 25
 292 0 l 25
EndSplineSet
EndChar

StartChar: hbar
Encoding: 295 295 401
Width: 1229
VWidth: 1947
Flags: W
LayerCount: 2
Fore
SplineSet
80 1280 m 25
 663 1280 l 25
1024 0 m 25
 1024 679 l 18
 1024 858 882 974 668 974 c 10
 643 974 l 18
 411 974 285 690.994 285 557 c 10
 285 0 l 25
 285 1400 l 25
EndSplineSet
EndChar

StartChar: IJ
Encoding: 306 306 410
Width: 1229
VWidth: 1947
Flags: W
LayerCount: 2
Fore
SplineSet
572 337 m 9
 684 337 l 18
 777 337 856 425 856 597 c 10
 856 1325 l 25
80 75 m 25
 744 75 l 25
80 1325 m 25
 1149 1325 l 1
374 1326 m 1
 374 75 l 9
EndSplineSet
EndChar

StartChar: Tbar
Encoding: 358 358 430
Width: 1229
VWidth: 1947
Flags: W
LayerCount: 2
Fore
SplineSet
130 560 m 25
 1099 560 l 25
616 0 m 25
 616 1325 l 25
130 1325 m 25
 1099 1325 l 25
EndSplineSet
EndChar

StartChar: tbar
Encoding: 359 359 431
Width: 1229
VWidth: 1947
Flags: W
HStem: -19 209<493.818 713.488> 522 130<73.8504 844.924> 839 182<76 251 473 761>
VStem: 74 771<522 652> 228 216<235.871 833.119> 251 215<420.546 839> 285 214<1094 1308>
DStem2: 265 1021 473 1021 0.0695178 0.997581<14.4597 287.696>
LayerCount: 2
Back
SplineSet
0 1425 m 1
 1229 1425 l 1
 1229 -84 l 1
 0 -84 l 1
 0 1425 l 1
EndSplineSet
Fore
SplineSet
159 933 m 25
 933 933 l 25
974 215 m 1
 954 133 831 50 731 50 c 10
 706 50 l 18
 574.822 50 440 163 440 300 c 2
 440 326 l 9
 533 1506 l 9
130 560 m 25
 1099 560 l 25
EndSplineSet
EndChar

StartChar: A
Encoding: 65 65 461
Width: 1229
VWidth: 1708
Flags: MW
LayerCount: 2
Back
SplineSet
-61 0 m 5
 -61 1425 l 5
 1292 1425 l 5
 1292 0 l 5
 -61 0 l 5
EndSplineSet
Fore
SplineSet
283 324 m 25
 948 324 l 25
170 -25 m 25
 616 1356 l 25
 1061 -25 l 25
EndSplineSet
EndChar

StartChar: Lambda
Encoding: 923 923 462
Width: 1229
VWidth: 1708
Flags: MW
LayerCount: 2
Back
SplineSet
0 0 m 1
 0 1425 l 1
 1229 1425 l 1
 1229 0 l 1
 0 0 l 1
EndSplineSet
Fore
SplineSet
170 -25 m 25
 616 1376 l 25
 1061 -25 l 25
EndSplineSet
EndChar

StartChar: Delta
Encoding: 916 916 463
Width: 1229
VWidth: 1708
Flags: MW
LayerCount: 2
Back
SplineSet
0 0 m 1
 0 1425 l 1
 1229 1425 l 1
 1229 0 l 1
 0 0 l 1
EndSplineSet
Fore
SplineSet
1024 76 m 9
 616 1376 l 17
 205 75 l 1
 1024 76 l 9
EndSplineSet
EndChar

StartChar: Theta
Encoding: 920 920 464
Width: 1229
VWidth: 1947
Flags: MW
LayerCount: 2
Fore
SplineSet
625 1350 m 2
 897 1350 1024 1062 1024 765 c 2
 1024 696 l 2
 1024 380 915 50 625 50 c 2
 608 50 l 2
 318 50 205 380 205 696 c 2
 205 763 l 2
 205 1063 324 1350 607 1350 c 2
 625 1350 l 2
495 699 m 17
 589 699 643 699 737 699 c 9
EndSplineSet
EndChar

StartChar: Xi
Encoding: 926 926 465
Width: 1229
VWidth: 1708
Flags: W
LayerCount: 2
Fore
SplineSet
205 337 m 29
 205 75 l 29
 1024 75 l 29
 1024 337 l 29
427 700 m 29
 805 700 l 29
205 1049 m 29
 205 1325 l 29
 1024 1325 l 29
 1024 1049 l 29
EndSplineSet
EndChar

StartChar: Sigma
Encoding: 931 931 468
Width: 1229
VWidth: 1947
Flags: MW
LayerCount: 2
Back
SplineSet
130 1425 m 1
 1099 1425 l 5
 1099 -25 l 5
 130 -25 l 1
 130 1425 l 1
EndSplineSet
Fore
SplineSet
1160 50 m 1
 163 50 l 1
 647 734 l 1
 163 1325 l 1
 1160 1325 l 1
EndSplineSet
EndChar

StartChar: Psi
Encoding: 936 936 473
Width: 1229
VWidth: 1947
Flags: MW
LayerCount: 2
Fore
SplineSet
1055 1350 m 25
 1055 778 l 18
 1055 645 946 512 785 512 c 10
 447 512 l 18
 302 512 176 636 176 778 c 10
 176 1350 l 25
616 1425 m 25
 616 -24 l 25
EndSplineSet
EndChar

StartChar: Omega
Encoding: 937 937 474
Width: 1229
VWidth: 1947
Flags: MW
LayerCount: 2
Fore
SplineSet
130 75 m 1
 444 75 l 0
 444 323 l 1
 273 387 204 612 204 807 c 2
 204 862 l 2
 204 1108 327 1351 607 1351 c 2
 625 1351 l 2
 900 1351 1024 1107 1024 864 c 2
 1024 807 l 2
 1024 613 951 375 785 323 c 1
 785 75 l 1
 1099 75 l 25
EndSplineSet
EndChar

StartChar: alpha
Encoding: 945 945 483
Width: 1229
VWidth: 1947
Flags: MW
LayerCount: 2
Fore
SplineSet
1051 1024 m 1
 748 241 l 2
 715 154 655 50 515 50 c 2
 496 50 l 2
 344 50 205 240 205 495 c 2
 205 529 l 2
 205 782 344 974 496 974 c 2
 515 974 l 2
 673 974 716 867 748 782 c 2
 1054 0 l 17
EndSplineSet
EndChar

StartChar: beta
Encoding: 946 946 484
Width: 1229
VWidth: 2334
Flags: MW
LayerCount: 2
Fore
SplineSet
205 -321 m 25
 205 629 l 18
 205 808 341 974 605 974 c 10
 630 974 l 18
 889 974 976 882.4 976 770 c 2
 976 756 l 2
 976 640.4 869.769 549 620 549 c 2
 470 549 l 1
 668 549 l 2
 931 549 1024 458 1024 325 c 10
 1024 299 l 18
 1024 164 912 50 650 50 c 10
 595 50 l 18
 331 50 205 204 205 339 c 10
EndSplineSet
EndChar

StartChar: gamma
Encoding: 947 947 485
Width: 1229
VWidth: 2334
Flags: MW
LayerCount: 2
Back
SplineSet
-61 1024 m 1
 1292 1024 l 1
 1292 -386 l 1
 -61 -386 l 1
 -61 1024 l 1
EndSplineSet
Fore
SplineSet
615 -386 m 25
 615 50 l 25
170 1106 m 25
 615 50 l 25
 1059 1105 l 25
EndSplineSet
EndChar

StartChar: delta
Encoding: 948 948 486
Width: 1229
VWidth: 2334
Flags: MW
LayerCount: 2
Back
SplineSet
156 1455 m 1
 1229 1455 l 1
 1229 -51 l 1
 0 -51 l 1
 0 1098 l 1
 156 1098 l 1
 156 1455 l 1
EndSplineSet
Fore
SplineSet
1024 1325 m 25
 176 1325 l 25
 854 912 l 25
205 557 m 10
 205 477 l 18
 205 251 382 50 603 50 c 10
 628 50 l 18
 892 50 1024 251 1024 477 c 10
 1024 557 l 18
 1024 781 892 974 628 974 c 10
 603 974 l 18
 339 974 205 781 205 557 c 10
EndSplineSet
EndChar

StartChar: epsilon
Encoding: 949 949 487
Width: 1229
VWidth: 2334
Flags: W
LayerCount: 2
Fore
SplineSet
984 880 m 1
 932 930 816 974 659 974 c 10
 553 974 l 18
 289 974 205 899 205 764 c 3
 205 655 280 533 558 533 c 10
 851 533 l 25
 558 533 l 18
 280 533 205 396 205 311 c 10
 205 294 l 18
 205 150 289 50 553 50 c 10
 659 50 l 18
 826 50 914 96 981 154 c 1
EndSplineSet
EndChar

StartChar: zeta
Encoding: 950 950 488
Width: 1229
VWidth: 2334
Flags: MW
LayerCount: 2
Back
SplineSet
0 1389 m 1
 1098 1389 l 1
 1098 512 l 1
 1229 512 l 1
 1229 -411 l 1
 0 -411 l 1
 0 1389 l 1
EndSplineSet
Fore
SplineSet
485 1049 m 17
 530 1024 l 2
 651 957 848 949 993 949 c 2
 1055 949 l 1
 1032 923 l 2
 967 849 845 783 758 751 c 2
 463 644 l 2
 331 596 205 467 205 357 c 10
 205 337 l 18
 205 156 289 50 553 50 c 10
 718 50 l 18
 932 50 1024 5 1024 -94 c 2
 1024 -116 l 2
 1024 -230 893 -294 737 -294 c 2
 616 -294 l 9
EndSplineSet
EndChar

StartChar: eta
Encoding: 951 951 489
Width: 1229
VWidth: 2334
Flags: MW
LayerCount: 2
Fore
SplineSet
1024 -387 m 29
 1024 719 l 22
 1024 898 892 974 628 974 c 14
 603 974 l 22
 371 974 205 731 205 597 c 14
 205 513 l 29
205 1024 m 29
 205 0 l 29
EndSplineSet
EndChar

StartChar: theta
Encoding: 952 952 490
Width: 1229
VWidth: 1947
Flags: MW
LayerCount: 2
Fore
SplineSet
641 973 m 2
 888 973 1024 800 1024 562 c 2
 1024 470 l 2
 1024 226 891 50 637 50 c 2
 586 50 l 2
 345 50 205 230 205 471 c 2
 205 561 l 2
 205 798 351 973 584 973 c 2
 641 973 l 2
206 512 m 17
 344 512 881 512 1019 512 c 9
EndSplineSet
EndChar

StartChar: lambda
Encoding: 955 955 491
Width: 1229
VWidth: 2334
Flags: MW
LayerCount: 2
Back
SplineSet
-61 0 m 5
 -61 1410 l 5
 1292 1410 l 5
 1292 0 l 5
 -61 0 l 5
EndSplineSet
Fore
SplineSet
391 1527 m 25
 616 975 l 25
180 -62 m 25
 616 975 l 25
 1045 -45 l 25
EndSplineSet
EndChar

StartChar: xi
Encoding: 958 958 494
Width: 1229
VWidth: 2334
Flags: MW
LayerCount: 2
Back
SplineSet
0 1425 m 1
 876 1425 l 1
 876 804 l 1
 1229 804 l 1
 1229 -410 l 1
 0 -410 l 1
 0 1425 l 1
EndSplineSet
Fore
SplineSet
456 1254 m 17
 476 1223 l 2
 509.652 1170.84 639.415 1107.67 808 1083 c 2
 849 1077 l 1
 814 1055 l 2
 780.167 1033.73 704.367 1008.44 626 994 c 2
 474 966 l 2
 347.325 942.665 206 888.309 206 757 c 2
 206 730 l 2
 206 625.19 346 513 608 513 c 10
 890 513 l 25
 608 513 l 18
 330 513 205 407 205 287 c 10
 205 270 l 18
 205 119 309 50 553 50 c 10
 718 50 l 18
 932 50 1024 5 1024 -94 c 2
 1024 -116 l 2
 1024 -230 893 -294 737 -294 c 2
 616 -294 l 9
EndSplineSet
EndChar

StartChar: pi
Encoding: 960 960 496
Width: 1229
VWidth: 2334
Flags: MW
LayerCount: 2
Back
SplineSet
72 1350 m 1
 1158 1350 l 1
 1158 0 l 1
 72 0 l 1
 72 1350 l 1
EndSplineSet
Fore
SplineSet
-46 784 m 17
 18 858 153 949 368 949 c 2
 863 949 l 2
 1084 949 1229 1038 1277 1122 c 9
917 949 m 25
 917 228 l 18
 917 75 1099 -96 1222 -142 c 9
5 -142 m 17
 162 -93 289 75 289 228 c 10
 289 939 l 25
EndSplineSet
EndChar

StartChar: rho
Encoding: 961 961 497
Width: 1229
VWidth: 2334
Flags: MW
LayerCount: 2
Fore
SplineSet
205 -386 m 25
 205 514 l 25
1024 457 m 10
 1024 597 l 18
 1024 823 849 974 628 974 c 10
 603 974 l 18
 339 974 205 823 205 597 c 10
 205 457 l 18
 205 233 339 50 603 50 c 10
 628 50 l 18
 892 50 1024 233 1024 457 c 10
EndSplineSet
EndChar

StartChar: sigmafinal
Encoding: 962 962 498
Width: 1229
VWidth: 2334
Flags: MW
LayerCount: 2
Fore
SplineSet
1051 862 m 9
 992 900 l 18
 942.596 931.82 826 973 752 973 c 2
 683 973 l 2
 400.5 973 205 775 205 567 c 10
 205 467 l 18
 205 207 354 50 553 50 c 10
 718 50 l 18
 932 50 1024 5 1024 -94 c 2
 1024 -116 l 2
 1024 -230 893 -294 737 -294 c 2
 616 -294 l 9
EndSplineSet
EndChar

StartChar: sigma
Encoding: 963 963 499
Width: 1229
VWidth: 1947
Flags: MW
LayerCount: 2
Fore
SplineSet
639 973 m 2
 873 973 1024 800 1024 562 c 2
 1024 490 l 2
 1024 246 873 50 636 50 c 2
 584 50 l 2
 348 50 205 250 205 491 c 2
 205 561 l 2
 205 798 348 973 582 973 c 2
 639 973 l 2
1149 933 m 25
 823 932 l 25
EndSplineSet
EndChar

StartChar: tau
Encoding: 964 964 500
Width: 1229
VWidth: 2334
Flags: MW
LayerCount: 2
Back
SplineSet
130 1350 m 1
 1099 1350 l 1
 1099 -25 l 5
 130 -25 l 5
 130 1350 l 1
EndSplineSet
Fore
SplineSet
-46 694 m 17
 27 786 246 949 418 949 c 2
 803 949 l 2
 987 949 1229 1176 1277 1252 c 9
219 -142 m 17
 357 -138 616 120 616 358 c 2
 616 949 l 9
EndSplineSet
EndChar

StartChar: upsilon
Encoding: 965 965 501
Width: 1229
VWidth: 1947
Flags: MW
LayerCount: 2
Fore
SplineSet
541 975 m 0
 669 975 l 2
 924 975 1024 790 1024 562 c 2
 1024 475 l 2
 1024 235 858 50 631 50 c 2
 600 50 l 2
 307 50 205 273 205 513 c 2
 205 1023 l 1
EndSplineSet
EndChar

StartChar: phi
Encoding: 966 966 502
Width: 1229
VWidth: 1947
Flags: W
LayerCount: 2
Fore
SplineSet
616 -386 m 1
 616 734 l 2
 616 880 687 974 780 974 c 2
 805 974 l 2
 936 974 1024 785 1024 555 c 2
 1024 504 l 2
 1023 266 924 50 654 50 c 2
 578 50 l 2
 292 50 205 267 205 500 c 2
 205 973 l 1
EndSplineSet
EndChar

StartChar: chi
Encoding: 967 967 503
Width: 1229
VWidth: 2062
Flags: MW
LayerCount: 2
Back
SplineSet
-61 1023 m 5
 1292 1023 l 5
 1292 -387 l 5
 -61 -387 l 5
 -61 1023 l 5
EndSplineSet
Fore
SplineSet
1196 1328 m 25
 28 -690 l 17
-158 1275 m 1
 -88 1266 47 1180 115 1107 c 2
 284 945 l 2
 367 873 462 709 515 561 c 2
 660 156 l 2
 726 -28 834 -240 936 -319 c 2
 1115 -456 l 2
 1137.56 -473.267 1254 -517 1339 -543 c 9
EndSplineSet
EndChar

StartChar: psi
Encoding: 968 968 504
Width: 1229
VWidth: 1947
Flags: MW
LayerCount: 2
Fore
SplineSet
616 -386 m 1
 616 1049 l 17
1024 973 m 0
 1024 513 l 2
 1024 318.25 900 50 731 50 c 2
 497 50 l 2
 327 50 205 319.115 205 513 c 2
 205 973 l 1
EndSplineSet
EndChar

StartChar: omega
Encoding: 969 969 505
Width: 1229
VWidth: 2334
Flags: MW
LayerCount: 2
Back
SplineSet
-1 -114 m 1
 -1 1024 l 1
 1229 1024 l 1
 1229 -114 l 1
 -1 -114 l 1
EndSplineSet
Fore
SplineSet
435 1166 m 17
 279 975 l 2
 243.21 931.18 205 815 205 734 c 10
 205 336 l 18
 205 198 279 50 392 50 c 10
 415 50 l 18
 558 50 616 144 616 275 c 10
 616 732 l 25
 616 275 l 18
 616 144 686 50 806 50 c 10
 833 50 l 18
 978 50 1024 198 1024 337 c 10
 1024 734 l 18
 1024 816 1000.41 922.729 949 978 c 2
 776 1164 l 9
EndSplineSet
EndChar

StartChar: dieresiscmb
Encoding: 776 776 508
Width: 1229
VWidth: 1947
Flags: MW
LayerCount: 2
Fore
SplineSet
512 1386 m 3
 512 1339 473 1296 427 1296 c 3
 381 1296 341 1336 341 1386 c 3
 341 1438 383 1472 426 1472 c 3
 475 1472 512 1432 512 1386 c 3
878 1386 m 3
 878 1334 837 1296 794 1296 c 3
 749 1296 709 1337 709 1386 c 3
 709 1436 749 1472 794 1472 c 3
 835 1472 878 1438 878 1386 c 3
EndSplineSet
EndChar

StartChar: Djecyrillic
Encoding: 1026 1026 512
Width: 1229
VWidth: 2334
Flags: MW
LayerCount: 2
Fore
SplineSet
720 75 m 25
 827 75 l 18
 994 75 1023 276 1023 386 c 2
 1023 649 l 2
 1023 787 935 904 790 904 c 10
 763 904 l 18
 652 904 451 722.999 451 417 c 10
 451 0 l 25
 451 1325 l 25
130 1325 m 25
 1099 1325 l 25
EndSplineSet
EndChar

StartChar: Ljecyrillic
Encoding: 1033 1033 513
Width: 1229
VWidth: 1947
Flags: MW
LayerCount: 2
Back
SplineSet
-61 1425 m 5
 1292 1425 l 5
 1292 -100 l 5
 373 -100 l 5
 373 0 l 5
 -61 0 l 5
 -61 1425 l 5
EndSplineSet
Fore
SplineSet
150 -126 m 25
 305 1075 l 18
 322.654 1211.79 384 1325 478 1325 c 10
 615 1325 l 1
 615 75 l 1
 741 75 l 2
 915 75 1024 189 1024 417 c 2
 1024 495 l 2
 1024 676 927 797 741 797 c 2
 615 797 l 25
EndSplineSet
EndChar

StartChar: Njecyrillic
Encoding: 1034 1034 514
Width: 1229
VWidth: 1947
Flags: MW
LayerCount: 2
Fore
SplineSet
205 1400 m 25
 205 0 l 25
211 797 m 25
 751 797 l 2
 948 797 1024 676 1024 495 c 2
 1024 417 l 2
 1024 238 939 75 750 75 c 2
 615 75 l 1
 615 1400 l 1
EndSplineSet
EndChar

StartChar: Tshecyrillic
Encoding: 1035 1035 515
Width: 1229
VWidth: 2334
Flags: MW
LayerCount: 2
Fore
SplineSet
1024 0 m 25
 1024 739 l 18
 1024 877 920 974 775 974 c 10
 748 974 l 18
 637 974 426 834.998 426 497 c 10
 426 0 l 25
 426 1325 l 25
130 1325 m 25
 1099 1325 l 25
EndSplineSet
EndChar

StartChar: Dzhecyrillic
Encoding: 1039 1039 516
Width: 1229
VWidth: 2334
Flags: MW
LayerCount: 2
Fore
SplineSet
616 76 m 25
 616 -386 l 25
205 1400 m 25
 205 75 l 25
 1024 75 l 17
 1024 1400 l 9
EndSplineSet
EndChar

StartChar: djecyrillic
Encoding: 1106 1106 517
Width: 1229
VWidth: 2334
Flags: MW
LayerCount: 2
Fore
SplineSet
130 1185 m 25
 826 1185 l 25
424 -228 m 1
 475 -271 553 -294 636 -294 c 10
 711 -294 l 18
 908 -294 1024 -110 1024 32 c 10
 1024 513 l 18
 1024 692 966 855 702 855 c 10
 655 855 l 18
 424 855 299 557.001 299 423 c 10
 299 0 l 25
 299 1424 l 25
EndSplineSet
EndChar

StartChar: dzhecyrillic
Encoding: 1119 1119 519
Width: 1229
VWidth: 2334
Flags: MW
LayerCount: 2
Fore
SplineSet
616 -386 m 25
 616 76 l 25
205 1023 m 25
 205 76 l 25
 1024 76 l 25
 1024 1023 l 25
EndSplineSet
EndChar

StartChar: ljecyrillic
Encoding: 1113 1113 520
Width: 1229
VWidth: 1947
Flags: MW
LayerCount: 2
Back
SplineSet
0 1048 m 1
 1229 1048 l 1
 1229 0 l 1
 0 0 l 1
 0 1048 l 1
EndSplineSet
Fore
SplineSet
159 -99 m 16
 231 615 l 2
 244 764 300.676 948 486 948 c 10
 615 948 l 25
 614 75 l 25
 770 75 l 18
 908 75 1024 174 1024 309 c 2
 1024 357 l 2
 1024 458 908 561 770 561 c 10
 614 561 l 25
EndSplineSet
EndChar

StartChar: njecyrillic
Encoding: 1114 1114 521
Width: 1229
VWidth: 1947
Flags: MW
LayerCount: 2
Fore
SplineSet
205 1024 m 25
 205 0 l 25
616 1024 m 25
 616 75 l 25
 760 75 l 18
 898 75 1024 170 1024 305 c 2
 1024 353 l 2
 1024 454 898 561 760 561 c 10
 616 561 l 25
 205 561 l 25
EndSplineSet
EndChar

StartChar: apostrophereverse
Encoding: 8219 8219 523
Width: 1229
VWidth: 1708
Flags: W
HStem: 986 55<736.034 770.91>
VStem: 518 195<1308.53 1411.79>
LayerCount: 2
Fore
SplineSet
518 1330 m 17
 519 1198 537 1012 767 986 c 9
 782 1041 l 17
 730.328 1059.72 638 1116 638 1182 c 7
 638 1204 648.133 1229.65 674 1252 c 9
 518 1330 l 17
518 1327 m 7
 518 1275 558 1229 616 1229 c 7
 672 1229 713 1275 713 1327 c 7
 713 1378 674 1425 616 1425 c 7
 559 1425 518 1379 518 1327 c 7
EndSplineSet
EndChar

StartChar: arrowleft
Encoding: 8592 8592 526
Width: 1229
VWidth: 1708
Flags: W
LayerCount: 2
Fore
SplineSet
1076 -99 m 5
 204 -99 l 5
 204 1256 l 5
 1076 1256 l 5
 1076 -99 l 5
615 992 m 29
 244 600 l 29
 615 208 l 29
244 600 m 29
 1026 600 l 29
EndSplineSet
EndChar

StartChar: arrowright
Encoding: 8594 8594 527
Width: 1229
VWidth: 1708
Flags: MW
LayerCount: 2
Fore
SplineSet
154 -99 m 1
 154 1256 l 1
 1026 1256 l 1
 1026 -99 l 1
 154 -99 l 1
615 992 m 25
 986 600 l 25
 615 208 l 25
986 600 m 25
 204 600 l 25
EndSplineSet
EndChar

StartChar: lthorizform
Encoding: 9472 9472 528
Width: 1229
Flags: W
LayerCount: 2
Fore
SplineSet
1229 523 m 1
 -0 523 l 1
EndSplineSet
EndChar

StartChar: ltvertform
Encoding: 9474 9474 529
Width: 1229
Flags: W
LayerCount: 2
Fore
SplineSet
615 1775 m 1
 615 -615 l 1
EndSplineSet
EndChar

StartChar: rightanglenw
Encoding: 9484 9484 530
Width: 1229
Flags: W
LayerCount: 2
Fore
SplineSet
615 -615 m 1
 615 523 l 1
 1229 523 l 1
EndSplineSet
EndChar

StartChar: rightanglene
Encoding: 9488 9488 531
Width: 1229
Flags: W
LayerCount: 2
Fore
SplineSet
615 -615 m 1
 615 523 l 1
 -0 523 l 1
EndSplineSet
EndChar

StartChar: rightanglesw
Encoding: 9492 9492 532
Width: 1229
Flags: W
LayerCount: 2
Fore
SplineSet
615 1775 m 5
 615 523 l 1
 1229 523 l 1
EndSplineSet
EndChar

StartChar: rightanglese
Encoding: 9496 9496 533
Width: 1229
Flags: W
LayerCount: 2
Fore
SplineSet
615 1775 m 5
 615 523 l 1
 -0 523 l 1
EndSplineSet
EndChar

StartChar: ltvertrightform
Encoding: 9500 9500 534
Width: 1229
Flags: W
LayerCount: 2
Fore
SplineSet
615 1775 m 5
 615 -615 l 1
1229 523 m 1
 615 523 l 1
EndSplineSet
EndChar

StartChar: ltvertleftform
Encoding: 9508 9508 535
Width: 1229
Flags: W
LayerCount: 2
Fore
SplineSet
615 1775 m 5
 615 -615 l 1
615 523 m 1
 -0 523 l 1
EndSplineSet
EndChar

StartChar: ltdnhorizform
Encoding: 9516 9516 536
Width: 1229
Flags: W
LayerCount: 2
Fore
SplineSet
615 523 m 1
 615 -615 l 1
1229 523 m 1
 -0 523 l 1
EndSplineSet
EndChar

StartChar: ltuphorizform
Encoding: 9524 9524 537
Width: 1229
Flags: W
LayerCount: 2
Fore
SplineSet
615 1775 m 5
 615 523 l 1
1229 523 m 1
 -0 523 l 1
EndSplineSet
EndChar

StartChar: ltverthorizform
Encoding: 9532 9532 538
Width: 1229
Flags: W
LayerCount: 2
Fore
SplineSet
615 1775 m 5
 615 -615 l 1
1229 523 m 1
 -0 523 l 1
EndSplineSet
EndChar

StartChar: horizdblbar
Encoding: 9552 9552 539
Width: 1229
Flags: W
LayerCount: 2
Fore
SplineSet
1229 363 m 1
 0 363 l 1
1229 715 m 1
 0 715 l 1
EndSplineSet
EndChar

StartChar: vertdblbar
Encoding: 9553 9553 540
Width: 1229
Flags: W
LayerCount: 2
Fore
SplineSet
455 1775 m 5
 455 -615 l 1
775 1775 m 5
 775 -615 l 1
EndSplineSet
EndChar

StartChar: dnrtdblform
Encoding: 9554 9554 541
Width: 1229
Flags: W
LayerCount: 2
Fore
SplineSet
1229 363 m 1
 615 363 l 1
1229 715 m 1
 615 715 l 1
 615 -615 l 1
EndSplineSet
EndChar

StartChar: dndblrtform
Encoding: 9555 9555 542
Width: 1229
Flags: W
LayerCount: 2
Fore
SplineSet
455 -615 m 1
 455 523 l 1
 1229 523 l 1
775 523 m 1
 775 -615 l 1
EndSplineSet
EndChar

StartChar: dbldnrtform
Encoding: 9556 9556 543
Width: 1229
Flags: W
LayerCount: 2
Fore
SplineSet
1229 363 m 1
 775 363 l 1
 775 -615 l 1
1229 715 m 1
 455 715 l 1
 455 -615 l 1
EndSplineSet
EndChar

StartChar: dnleftdblform
Encoding: 9557 9557 544
Width: 1229
Flags: W
LayerCount: 2
Fore
SplineSet
615 363 m 1
 0 363 l 1
0 715 m 1
 615 715 l 1
 615 -615 l 1
EndSplineSet
EndChar

StartChar: dndblleftform
Encoding: 9558 9558 545
Width: 1229
Flags: W
LayerCount: 2
Fore
SplineSet
455 523 m 1
 455 -615 l 1
775 -615 m 1
 775 523 l 1
 -0 523 l 1
EndSplineSet
EndChar

StartChar: dbldnleftform
Encoding: 9559 9559 546
Width: 1229
Flags: W
LayerCount: 2
Fore
SplineSet
0 363 m 1
 455 363 l 1
 455 -615 l 1
0 715 m 1
 775 715 l 1
 775 -615 l 1
EndSplineSet
EndChar

StartChar: uprtdblform
Encoding: 9560 9560 547
Width: 1229
Flags: W
LayerCount: 2
Fore
SplineSet
1229 363 m 1
 615 363 l 1
 615 1775 l 5
1229 683 m 1
 615 683 l 1
EndSplineSet
EndChar

StartChar: updblrtform
Encoding: 9561 9561 548
Width: 1229
Flags: W
LayerCount: 2
Fore
SplineSet
455 1775 m 5
 455 523 l 1
 1229 523 l 1
775 1775 m 5
 775 523 l 1
EndSplineSet
EndChar

StartChar: dbluprtform
Encoding: 9562 9562 549
Width: 1229
Flags: W
LayerCount: 2
Fore
SplineSet
1229 363 m 1
 455 363 l 1
 455 1775 l 5
1229 715 m 1
 775 715 l 1
 775 1775 l 5
EndSplineSet
EndChar

StartChar: upleftdblform
Encoding: 9563 9563 550
Width: 1229
Flags: W
LayerCount: 2
Fore
SplineSet
0 363 m 1
 615 363 l 1
 615 1775 l 5
615 683 m 1
 0 683 l 1
EndSplineSet
EndChar

StartChar: updblleftform
Encoding: 9564 9564 551
Width: 1229
Flags: W
LayerCount: 2
Fore
SplineSet
455 1775 m 5
 455 523 l 1
775 1775 m 5
 775 523 l 1
 -0 523 l 1
EndSplineSet
EndChar

StartChar: dblupleftform
Encoding: 9565 9565 552
Width: 1229
Flags: W
LayerCount: 2
Fore
SplineSet
0 363 m 1
 775 363 l 1
 775 1775 l 5
0 715 m 1
 455 715 l 1
 455 1775 l 5
EndSplineSet
EndChar

StartChar: vertrtdblform
Encoding: 9566 9566 553
Width: 1229
Flags: W
LayerCount: 2
Fore
SplineSet
1229 363 m 1
 615 363 l 1
1229 683 m 1
 615 683 l 1
615 1775 m 5
 615 -615 l 1
EndSplineSet
EndChar

StartChar: vertdblrtform
Encoding: 9567 9567 554
Width: 1229
Flags: W
LayerCount: 2
Fore
SplineSet
455 1775 m 1
 455 -615 l 1
775 1775 m 1
 775 -615 l 1
1229 523 m 1
 775 523 l 1
EndSplineSet
EndChar

StartChar: dblvertrtform
Encoding: 9568 9568 555
Width: 1229
Flags: W
LayerCount: 2
Fore
SplineSet
1229 363 m 1
 775 363 l 1
 775 -615 l 1
1229 715 m 1
 775 715 l 1
 775 1775 l 5
455 1775 m 5
 455 -615 l 1
EndSplineSet
EndChar

StartChar: vertleftdblform
Encoding: 9569 9569 556
Width: 1229
Flags: W
LayerCount: 2
Fore
SplineSet
615 363 m 1
 0 363 l 1
615 683 m 1
 0 683 l 1
615 1775 m 5
 615 -615 l 1
EndSplineSet
EndChar

StartChar: vertdblleftform
Encoding: 9570 9570 557
Width: 1229
Flags: W
LayerCount: 2
Fore
SplineSet
455 1775 m 5
 455 -615 l 1
775 1775 m 5
 775 -615 l 1
455 523 m 1
 -0 523 l 1
EndSplineSet
EndChar

StartChar: dblvertleftform
Encoding: 9571 9571 558
Width: 1229
Flags: W
LayerCount: 2
Fore
SplineSet
0 363 m 1
 455 363 l 1
 455 -615 l 1
0 715 m 1
 455 715 l 1
 455 1775 l 5
775 1775 m 5
 775 -615 l 1
EndSplineSet
EndChar

StartChar: dnhorizdblform
Encoding: 9572 9572 559
Width: 1229
Flags: W
LayerCount: 2
Fore
SplineSet
1229 363 m 1
 0 363 l 1
1229 715 m 1
 0 715 l 1
615 363 m 1
 615 -615 l 1
EndSplineSet
EndChar

StartChar: dndblhorizform
Encoding: 9573 9573 560
Width: 1229
Flags: W
LayerCount: 2
Fore
SplineSet
455 523 m 1
 455 -615 l 1
775 523 m 1
 775 -615 l 1
1229 523 m 1
 0 523 l 1
EndSplineSet
EndChar

StartChar: dbldnhorizform
Encoding: 9574 9574 561
Width: 1229
Flags: W
LayerCount: 2
Fore
SplineSet
1229 363 m 1
 775 363 l 1
 775 -615 l 1
0 363 m 1
 455 363 l 1
 455 -615 l 1
1229 715 m 1
 0 715 l 1
EndSplineSet
EndChar

StartChar: uphorizdblform
Encoding: 9575 9575 562
Width: 1229
Flags: W
LayerCount: 2
Fore
SplineSet
1229 363 m 1
 0 363 l 1
1229 715 m 1
 0 715 l 1
615 1775 m 5
 615 715 l 1
EndSplineSet
EndChar

StartChar: updblhorizform
Encoding: 9576 9576 563
Width: 1229
Flags: W
LayerCount: 2
Fore
SplineSet
455 1775 m 5
 455 523 l 1
775 1775 m 5
 775 523 l 1
1229 523 m 1
 -0 523 l 1
EndSplineSet
EndChar

StartChar: dbluphorizform
Encoding: 9577 9577 564
Width: 1229
Flags: W
LayerCount: 2
Fore
SplineSet
1229 363 m 1
 0 363 l 1
1229 715 m 1
 775 715 l 1
 775 1775 l 5
0 715 m 1
 455 715 l 1
 455 1775 l 5
EndSplineSet
EndChar

StartChar: verthorizdblform
Encoding: 9578 9578 565
Width: 1229
Flags: W
LayerCount: 2
Fore
SplineSet
1229 363 m 1
 0 363 l 1
1229 715 m 1
 0 715 l 1
615 1775 m 1
 615 715 l 1
615 363 m 1
 615 -615 l 1
EndSplineSet
EndChar

StartChar: vertdblhorizform
Encoding: 9579 9579 566
Width: 1229
Flags: W
LayerCount: 2
Fore
SplineSet
455 1775 m 1
 455 -615 l 1
775 1775 m 1
 775 -615 l 1
1229 523 m 1
 775 523 l 1
455 523 m 1
 -0 523 l 1
EndSplineSet
EndChar

StartChar: dblverthorizform
Encoding: 9580 9580 567
Width: 1229
Flags: W
LayerCount: 2
Fore
SplineSet
1229 363 m 1
 775 363 l 1
 775 -615 l 1
0 363 m 1
 455 363 l 1
 455 -615 l 1
1229 715 m 1
 775 715 l 1
 775 1775 l 5
0 715 m 1
 455 715 l 1
 455 1775 l 5
EndSplineSet
EndChar

StartChar: upblock
Encoding: 9600 9600 568
Width: 1229
Flags: W
VStem: -0 922<523 1775>
LayerCount: 2
Fore
SplineSet
1229 523 m 1
 -0 523 l 1
 0 1775 l 5
 1229 1775 l 5
 1229 523 l 1
EndSplineSet
EndChar

StartChar: dnblock
Encoding: 9604 9604 569
Width: 1229
Flags: W
HStem: -615 1138<0 922>
VStem: -0 922<-615 523>
LayerCount: 2
Fore
SplineSet
1229 -615 m 1
 -0 -615 l 1
 -0 523 l 1
 1229 523 l 1
 1229 -615 l 1
EndSplineSet
EndChar

StartChar: block
Encoding: 9608 9608 570
Width: 1229
Flags: W
VStem: -0 922<-615 1775>
LayerCount: 2
Fore
SplineSet
-0 -615 m 1
 0 1775 l 5
 1229 1775 l 5
 1229 -615 l 1
 -0 -615 l 1
EndSplineSet
EndChar

StartChar: lfblock
Encoding: 9612 9612 571
Width: 1229
Flags: W
VStem: -0 461<-615 1775>
LayerCount: 2
Fore
SplineSet
-0 -615 m 1
 0 1775 l 5
 615 1775 l 5
 615 -615 l 1
 -0 -615 l 1
EndSplineSet
EndChar

StartChar: rtblock
Encoding: 9616 9616 572
Width: 1229
Flags: W
VStem: 461 461<-615 1775>
LayerCount: 2
Fore
SplineSet
615 -615 m 1
 615 1775 l 1
 1229 1775 l 1
 1229 -615 l 1
 615 -615 l 1
EndSplineSet
EndChar

StartChar: shadelight
Encoding: 9617 9617 573
Width: 1229
Flags: W
HStem: -514 100<153 230 461 540 769 846> -315 100<0 77 307 385 616 693> -115 99<153 230 461 540 769 846> 83 100<0 77 307 385 616 693> 283 99<153 230 461 540 769 846> 482 99<0 77 307 385 616 693> 681 100<153 230 461 540 769 846> 881 99<0 77 307 385 616 693> 1080 99<153 230 461 540 769 846> 1278 100<0 77 307 385 616 693> 1477 100<153 230 461 540 769 846> 1677 98<0 77 307 385 616 693>
VStem: 0 77<-315 -215 83 183 482 581 881 980 1278 1378 1677 1775> 153 77<-514 -414 -115 -16 283 382 681 781 1080 1179 1477 1577> 307 78<-315 -215 83 183 482 581 881 980 1278 1378 1677 1775> 461 79<-514 -414 -115 -16 283 382 681 781 1080 1179 1477 1577> 616 77<-315 -215 83 183 482 581 881 980 1278 1378 1677 1775> 769 77<-514 -414 -115 -16 283 382 681 781 1080 1179 1477 1577>
LayerCount: 2
Fore
SplineSet
0 1378 m 1
 103 1378 l 1
 103 1278 l 1
 0 1278 l 1
 0 1378 l 1
410 1378 m 1
 514 1378 l 1
 514 1278 l 1
 410 1278 l 1
 410 1378 l 1
823 1378 m 1
 924 1378 l 1
 924 1278 l 1
 823 1278 l 1
 823 1378 l 1
205 1179 m 1
 308 1179 l 1
 308 1080 l 1
 205 1080 l 1
 205 1179 l 1
616 1179 m 1
 721 1179 l 1
 721 1080 l 1
 616 1080 l 1
 616 1179 l 1
1026 1179 m 1
 1129 1179 l 1
 1129 1080 l 1
 1026 1080 l 1
 1026 1179 l 1
823 980 m 1
 924 980 l 1
 924 881 l 1
 823 881 l 1
 823 980 l 1
410 980 m 1
 514 980 l 1
 514 881 l 1
 410 881 l 1
 410 980 l 1
0 980 m 1
 103 980 l 1
 103 881 l 1
 0 881 l 1
 0 980 l 1
1026 781 m 1
 1129 781 l 1
 1129 681 l 1
 1026 681 l 1
 1026 781 l 1
616 781 m 1
 721 781 l 1
 721 681 l 1
 616 681 l 1
 616 781 l 1
205 781 m 1
 308 781 l 1
 308 681 l 1
 205 681 l 1
 205 781 l 1
0 581 m 1
 103 581 l 1
 103 482 l 1
 0 482 l 1
 0 581 l 1
410 581 m 1
 514 581 l 1
 514 482 l 1
 410 482 l 1
 410 581 l 1
823 581 m 1
 924 581 l 1
 924 482 l 1
 823 482 l 1
 823 581 l 1
1026 382 m 1
 1129 382 l 1
 1129 283 l 1
 1026 283 l 1
 1026 382 l 1
616 382 m 1
 721 382 l 1
 721 283 l 1
 616 283 l 1
 616 382 l 1
205 382 m 1
 308 382 l 1
 308 283 l 1
 205 283 l 1
 205 382 l 1
0 183 m 1
 103 183 l 1
 103 83 l 1
 0 83 l 1
 0 183 l 1
410 183 m 1
 514 183 l 1
 514 83 l 1
 410 83 l 1
 410 183 l 1
823 183 m 1
 924 183 l 1
 924 83 l 1
 823 83 l 1
 823 183 l 1
205 -16 m 1
 308 -16 l 1
 308 -115 l 1
 205 -115 l 1
 205 -16 l 1
616 -16 m 1
 721 -16 l 1
 721 -115 l 1
 616 -115 l 1
 616 -16 l 1
1026 -16 m 1
 1129 -16 l 1
 1129 -115 l 1
 1026 -115 l 1
 1026 -16 l 1
823 -215 m 1
 924 -215 l 1
 924 -315 l 1
 823 -315 l 1
 823 -215 l 1
410 -215 m 1
 514 -215 l 1
 514 -315 l 1
 410 -315 l 1
 410 -215 l 1
0 -215 m 1
 103 -215 l 1
 103 -315 l 1
 0 -315 l 1
 0 -215 l 1
205 -414 m 1
 308 -414 l 1
 308 -514 l 1
 205 -514 l 1
 205 -414 l 1
616 -414 m 1
 721 -414 l 1
 721 -514 l 1
 616 -514 l 1
 616 -414 l 1
1026 -414 m 1
 1129 -414 l 1
 1129 -514 l 1
 1026 -514 l 1
 1026 -414 l 1
205 1577 m 1
 308 1577 l 1
 308 1477 l 1
 205 1477 l 1
 205 1577 l 1
616 1577 m 1
 721 1577 l 1
 721 1477 l 1
 616 1477 l 1
 616 1577 l 1
1026 1577 m 1
 1129 1577 l 1
 1129 1477 l 1
 1026 1477 l 1
 1026 1577 l 1
0 1775 m 1
 103 1775 l 1
 103 1677 l 1
 0 1677 l 1
 0 1775 l 1
410 1775 m 1
 514 1775 l 1
 514 1677 l 1
 410 1677 l 1
 410 1775 l 1
823 1775 m 1
 924 1775 l 1
 924 1677 l 1
 823 1677 l 1
 823 1775 l 1
EndSplineSet
EndChar

StartChar: shademedium
Encoding: 9618 9618 574
Width: 1229
Flags: W
HStem: -514 100<0 77 153 230 307 384 461 539 616 692 769 846> -315 100<77 153 230 307 384 461 539 616 692 769 846 922> -115 99<0 77 153 230 307 384 461 539 616 692 769 846> 83 100<77 153 230 307 384 461 539 616 692 769 846 922> 283 99<0 77 153 230 307 384 461 539 616 692 769 846> 482 99<77 153 230 307 384 461 539 616 692 769 846 922> 681 100<0 77 153 230 307 384 461 539 616 692 769 846> 881 99<77 153 230 307 384 461 539 616 692 769 846 922> 1080 99<0 77 153 230 307 384 461 539 616 692 769 846> 1278 100<77 153 230 307 384 461 539 616 692 769 846 922> 1477 100<0 77 153 230 307 384 461 539 616 692 769 846> 1677 98<77 153 230 307 384 461 539 616 692 769 846 922>
VStem: 0 77<-514 -414 -115 -16 283 382 681 781 1080 1179 1477 1577> 77 76<-315 -215 83 183 482 581 881 980 1278 1378 1677 1775> 153 77<-514 -414 -115 -16 283 382 681 781 1080 1179 1477 1577> 230 77<-315 -215 83 183 482 581 881 980 1278 1378 1677 1775> 307 77<-514 -414 -115 -16 283 382 681 781 1080 1179 1477 1577> 384 77<-315 -215 83 183 482 581 881 980 1278 1378 1677 1775> 461 78<-514 -414 -115 -16 283 382 681 781 1080 1179 1477 1577> 539 77<-315 -215 83 183 482 581 881 980 1278 1378 1677 1775> 616 76<-514 -414 -115 -16 283 382 681 781 1080 1179 1477 1577> 692 77<-315 -215 83 183 482 581 881 980 1278 1378 1677 1775> 769 77<-514 -414 -115 -16 283 382 681 781 1080 1179 1477 1577> 846 76<-315 -215 83 183 482 581 881 980 1278 1378 1677 1775>
LayerCount: 2
Fore
SplineSet
103 1378 m 1
 205 1378 l 1
 205 1278 l 1
 103 1278 l 1
 103 1378 l 1
308 1378 m 1
 410 1378 l 1
 410 1278 l 1
 308 1278 l 1
 308 1378 l 1
513 1378 m 1
 616 1378 l 1
 616 1278 l 1
 513 1278 l 1
 513 1378 l 1
720 1378 m 1
 823 1378 l 1
 823 1278 l 1
 720 1278 l 1
 720 1378 l 1
923 1378 m 1
 1026 1378 l 1
 1026 1278 l 1
 923 1278 l 1
 923 1378 l 1
1129 1378 m 1
 1229 1378 l 1
 1229 1278 l 1
 1129 1278 l 1
 1129 1378 l 1
0 1179 m 1
 103 1179 l 1
 103 1080 l 1
 0 1080 l 1
 0 1179 l 1
205 1179 m 1
 308 1179 l 1
 308 1080 l 1
 205 1080 l 1
 205 1179 l 1
410 1179 m 1
 513 1179 l 1
 513 1080 l 1
 410 1080 l 1
 410 1179 l 1
616 1179 m 1
 720 1179 l 1
 720 1080 l 1
 616 1080 l 1
 616 1179 l 1
823 1179 m 1
 923 1179 l 1
 923 1080 l 1
 823 1080 l 1
 823 1179 l 1
1026 1179 m 1
 1129 1179 l 1
 1129 1080 l 1
 1026 1080 l 1
 1026 1179 l 1
103 980 m 1
 205 980 l 1
 205 881 l 1
 103 881 l 1
 103 980 l 1
308 980 m 1
 410 980 l 1
 410 881 l 1
 308 881 l 1
 308 980 l 1
513 980 m 1
 616 980 l 1
 616 881 l 1
 513 881 l 1
 513 980 l 1
720 980 m 1
 823 980 l 1
 823 881 l 1
 720 881 l 1
 720 980 l 1
923 980 m 1
 1026 980 l 1
 1026 881 l 1
 923 881 l 1
 923 980 l 1
1129 980 m 1
 1229 980 l 1
 1229 881 l 1
 1129 881 l 1
 1129 980 l 1
0 781 m 1
 103 781 l 1
 103 681 l 1
 0 681 l 1
 0 781 l 1
205 781 m 1
 308 781 l 1
 308 681 l 1
 205 681 l 1
 205 781 l 1
410 781 m 1
 513 781 l 1
 513 681 l 1
 410 681 l 1
 410 781 l 1
616 781 m 1
 720 781 l 1
 720 681 l 1
 616 681 l 1
 616 781 l 1
823 781 m 1
 923 781 l 1
 923 681 l 1
 823 681 l 1
 823 781 l 1
1026 781 m 1
 1129 781 l 1
 1129 681 l 1
 1026 681 l 1
 1026 781 l 1
103 581 m 1
 205 581 l 1
 205 482 l 1
 103 482 l 1
 103 581 l 1
308 581 m 1
 410 581 l 1
 410 482 l 1
 308 482 l 1
 308 581 l 1
513 581 m 1
 616 581 l 1
 616 482 l 1
 513 482 l 1
 513 581 l 1
720 581 m 1
 823 581 l 1
 823 482 l 1
 720 482 l 1
 720 581 l 1
923 581 m 1
 1026 581 l 1
 1026 482 l 1
 923 482 l 1
 923 581 l 1
1129 581 m 1
 1229 581 l 1
 1229 482 l 1
 1129 482 l 1
 1129 581 l 1
0 382 m 1
 103 382 l 1
 103 283 l 1
 0 283 l 1
 0 382 l 1
410 382 m 1
 513 382 l 1
 513 283 l 1
 410 283 l 1
 410 382 l 1
616 382 m 1
 720 382 l 1
 720 283 l 1
 616 283 l 1
 616 382 l 1
823 382 m 1
 923 382 l 1
 923 283 l 1
 823 283 l 1
 823 382 l 1
1026 382 m 1
 1129 382 l 1
 1129 283 l 1
 1026 283 l 1
 1026 382 l 1
205 382 m 1
 308 382 l 1
 308 283 l 1
 205 283 l 1
 205 382 l 1
1129 183 m 1
 1229 183 l 1
 1229 83 l 1
 1129 83 l 1
 1129 183 l 1
923 183 m 1
 1026 183 l 1
 1026 83 l 1
 923 83 l 1
 923 183 l 1
720 183 m 1
 823 183 l 1
 823 83 l 1
 720 83 l 1
 720 183 l 1
513 183 m 1
 616 183 l 1
 616 83 l 1
 513 83 l 1
 513 183 l 1
308 183 m 1
 410 183 l 1
 410 83 l 1
 308 83 l 1
 308 183 l 1
103 183 m 1
 205 183 l 1
 205 83 l 1
 103 83 l 1
 103 183 l 1
0 -16 m 1
 103 -16 l 1
 103 -115 l 1
 0 -115 l 1
 0 -16 l 1
205 -16 m 1
 308 -16 l 1
 308 -115 l 1
 205 -115 l 1
 205 -16 l 1
410 -16 m 1
 513 -16 l 1
 513 -115 l 1
 410 -115 l 1
 410 -16 l 1
616 -16 m 1
 720 -16 l 1
 720 -115 l 1
 616 -115 l 1
 616 -16 l 1
823 -16 m 1
 923 -16 l 1
 923 -115 l 1
 823 -115 l 1
 823 -16 l 1
1026 -16 m 1
 1129 -16 l 1
 1129 -115 l 1
 1026 -115 l 1
 1026 -16 l 1
1129 -215 m 1
 1229 -215 l 1
 1229 -315 l 1
 1129 -315 l 1
 1129 -215 l 1
923 -215 m 1
 1026 -215 l 1
 1026 -315 l 1
 923 -315 l 1
 923 -215 l 1
720 -215 m 1
 823 -215 l 1
 823 -315 l 1
 720 -315 l 1
 720 -215 l 1
513 -215 m 1
 616 -215 l 1
 616 -315 l 1
 513 -315 l 1
 513 -215 l 1
308 -215 m 1
 410 -215 l 1
 410 -315 l 1
 308 -315 l 1
 308 -215 l 1
103 -215 m 1
 205 -215 l 1
 205 -315 l 1
 103 -315 l 1
 103 -215 l 1
0 -414 m 1
 103 -414 l 1
 103 -514 l 1
 0 -514 l 1
 0 -414 l 1
205 -414 m 1
 308 -414 l 1
 308 -514 l 1
 205 -514 l 1
 205 -414 l 1
410 -414 m 1
 513 -414 l 1
 513 -514 l 1
 410 -514 l 1
 410 -414 l 1
616 -414 m 1
 720 -414 l 1
 720 -514 l 1
 616 -514 l 1
 616 -414 l 1
823 -414 m 1
 923 -414 l 1
 923 -514 l 1
 823 -514 l 1
 823 -414 l 1
1026 -414 m 1
 1129 -414 l 1
 1129 -514 l 1
 1026 -514 l 1
 1026 -414 l 1
0 1577 m 1
 103 1577 l 1
 103 1477 l 1
 0 1477 l 1
 0 1577 l 1
205 1577 m 1
 308 1577 l 1
 308 1477 l 1
 205 1477 l 1
 205 1577 l 1
410 1577 m 1
 513 1577 l 1
 513 1477 l 1
 410 1477 l 1
 410 1577 l 1
616 1577 m 1
 720 1577 l 1
 720 1477 l 1
 616 1477 l 1
 616 1577 l 1
823 1577 m 1
 923 1577 l 1
 923 1477 l 1
 823 1477 l 1
 823 1577 l 1
1026 1577 m 1
 1129 1577 l 1
 1129 1477 l 1
 1026 1477 l 1
 1026 1577 l 1
103 1775 m 1
 205 1775 l 1
 205 1677 l 1
 103 1677 l 1
 103 1775 l 1
308 1775 m 1
 410 1775 l 1
 410 1677 l 1
 308 1677 l 1
 308 1775 l 1
513 1775 m 1
 616 1775 l 1
 616 1677 l 1
 513 1677 l 1
 513 1775 l 1
720 1775 m 1
 823 1775 l 1
 823 1677 l 1
 720 1677 l 1
 720 1775 l 1
923 1775 m 1
 1026 1775 l 1
 1026 1677 l 1
 923 1677 l 1
 923 1775 l 1
1129 1775 m 1
 1229 1775 l 1
 1229 1677 l 1
 1129 1677 l 1
 1129 1775 l 1
EndSplineSet
EndChar

StartChar: shadedark
Encoding: 9619 9619 575
Width: 1229
Flags: W
HStem: -615 300<0 77 153 230 307 384 461 539 616 692 769 846> -615 101<77 153 230 307 384 461 539 616 692 769 846 922> -414 299<77 153 230 307 384 461 539 616 692 769 846 922> -215 299<0 77 153 230 307 384 461 539 616 692 769 846> -16 299<77 153 230 307 384 461 539 616 692 769 846 922> 183 299<0 77 153 230 307 384 461 539 616 692 769 846> 382 299<77 153 230 307 384 461 539 616 692 769 846 922> 581 299<0 77 153 230 307 384 461 539 616 692 769 846> 781 299<77 153 230 307 384 461 539 616 692 769 846 922> 980 299<0 77 153 230 307 384 461 539 616 692 769 846> 1179 299<77 153 230 307 384 461 539 616 692 769 846 922> 1378 299<0 77 153 230 307 384 461 539 616 692 769 846> 1577 198<77 153 230 307 384 461 539 616 692 769 846 922>
VStem: 0 77<-514 -414 -115 -16 283 382 681 781 1080 1179 1478 1577> 77 76<-315 -215 84 183 482 581 881 980 1279 1378 1677 1775> 153 77<-514 -414 -115 -16 283 382 681 781 1080 1179 1478 1577> 230 77<-315 -215 84 183 482 581 880 980 1279 1378 1677 1775> 307 77<-514 -414 -115 -16 283 382 681 781 1080 1179 1478 1577> 384 77<-315 -215 84 183 482 581 880 980 1279 1378 1677 1775> 461 78<-514 -414 -115 -16 283 382 681 781 1080 1179 1478 1577> 539 77<-315 -215 84 183 482 581 880 980 1279 1378 1677 1775> 616 76<-514 -414 -115 -16 283 382 681 781 1080 1179 1478 1577> 692 77<-315 -215 84 183 482 581 880 980 1279 1378 1677 1775> 769 77<-514 -414 -115 -16 283 382 681 781 1080 1179 1478 1577> 846 76<-315 -215 84 183 482 581 880 980 1279 1378 1677 1775>
LayerCount: 2
Fore
SplineSet
1229 1577 m 1x000fff80
 1129 1577 l 1
 1129 1478 l 1
 1229 1478 l 1
 1229 1179 l 1
 1129 1179 l 1
 1129 1080 l 1
 1229 1080 l 1
 1229 781 l 1
 1129 781 l 1
 1129 681 l 1
 1229 681 l 1
 1229 382 l 1
 1129 382 l 1
 1129 283 l 1
 1229 283 l 1
 1229 -16 l 1
 1129 -16 l 1
 1129 -115 l 1
 1229 -115 l 1
 1229 -414 l 1
 1129 -414 l 1
 1129 -514 l 1
 1229 -514 l 1
 1229 -615 l 1x6aafff80
 0 -615 l 1
 0 -315 l 1
 103 -315 l 1
 103 -215 l 1
 0 -215 l 1
 0 83 l 1
 103 83 l 1
 103 183 l 1
 0 183 l 1
 0 482 l 1
 103 482 l 1
 103 581 l 1
 0 581 l 1
 0 881 l 1
 103 881 l 1
 103 980 l 1
 0 980 l 1
 0 1279 l 1
 103 1279 l 1
 103 1378 l 1
 0 1378 l 1
 0 1677 l 1
 103 1677 l 1x9557ff80
 103 1775 l 1
 205 1775 l 1x000fff80
 205 1677 l 1
 308 1677 l 1x0017ff80
 308 1775 l 1
 410 1775 l 1x000fff80
 410 1677 l 1
 513 1677 l 1x0017ff80
 513 1775 l 1
 616 1775 l 1x000fff80
 616 1677 l 1
 720 1677 l 1x0017ff80
 720 1775 l 1
 823 1775 l 1x000fff80
 823 1677 l 1
 923 1677 l 1x0017ff80
 923 1775 l 1
 1026 1775 l 1x000fff80
 1026 1677 l 1
 1129 1677 l 1x0017ff80
 1129 1775 l 1
 1229 1775 l 1
 1229 1577 l 1x000fff80
103 1179 m 1
 103 1080 l 1
 205 1080 l 1
 205 1179 l 1
 103 1179 l 1
308 1179 m 1
 308 1080 l 1
 410 1080 l 1
 410 1179 l 1
 308 1179 l 1
513 1179 m 1
 513 1080 l 1
 616 1080 l 1
 616 1179 l 1
 513 1179 l 1
720 1179 m 1
 720 1080 l 1
 823 1080 l 1
 823 1179 l 1
 720 1179 l 1
923 1179 m 1
 923 1080 l 1
 1026 1080 l 1
 1026 1179 l 1
 923 1179 l 1
1129 980 m 1x0147ff80
 1026 980 l 1
 1026 880 l 1
 1129 880 l 1
 1129 980 l 1x0147ff80
923 980 m 1
 823 980 l 1
 823 880 l 1
 923 880 l 1
 923 980 l 1
720 980 m 1
 616 980 l 1
 616 880 l 1
 720 880 l 1
 720 980 l 1
513 980 m 1
 410 980 l 1
 410 880 l 1
 513 880 l 1
 513 980 l 1
308 980 m 1
 205 980 l 1
 205 880 l 1
 308 880 l 1
 308 980 l 1
103 781 m 1x0287ff80
 103 681 l 1
 205 681 l 1
 205 781 l 1
 103 781 l 1x0287ff80
308 781 m 1
 308 681 l 1
 410 681 l 1
 410 781 l 1
 308 781 l 1
513 781 m 1
 513 681 l 1
 616 681 l 1
 616 781 l 1
 513 781 l 1
720 781 m 1
 720 681 l 1
 823 681 l 1
 823 781 l 1
 720 781 l 1
923 781 m 1
 923 681 l 1
 1026 681 l 1
 1026 781 l 1
 923 781 l 1
308 581 m 1x0507ff80
 205 581 l 1
 205 482 l 1
 308 482 l 1
 308 581 l 1x0507ff80
410 581 m 1
 410 482 l 1
 513 482 l 1
 513 581 l 1
 410 581 l 1
616 581 m 1
 616 482 l 1
 720 482 l 1
 720 581 l 1
 616 581 l 1
823 581 m 1
 823 482 l 1
 923 482 l 1
 923 581 l 1
 823 581 l 1
1026 581 m 1
 1026 482 l 1
 1129 482 l 1
 1129 581 l 1
 1026 581 l 1
103 382 m 1x0a07ff80
 103 283 l 1
 205 283 l 1
 205 382 l 1
 103 382 l 1x0a07ff80
513 382 m 1
 513 283 l 1
 616 283 l 1
 616 382 l 1
 513 382 l 1
410 283 m 1
 410 382 l 1
 308 382 l 1
 308 283 l 1
 410 283 l 1
720 382 m 1
 720 283 l 1
 823 283 l 1
 823 382 l 1
 720 382 l 1
923 382 m 1
 923 283 l 1
 1026 283 l 1
 1026 382 l 1
 923 382 l 1
1129 84 m 1x1407ff80
 1129 183 l 1
 1026 183 l 1
 1026 84 l 1
 1129 84 l 1x1407ff80
923 84 m 1
 923 183 l 1
 823 183 l 1
 823 84 l 1
 923 84 l 1
720 84 m 1
 720 183 l 1
 616 183 l 1
 616 84 l 1
 720 84 l 1
513 84 m 1
 513 183 l 1
 410 183 l 1
 410 84 l 1
 513 84 l 1
308 84 m 1
 308 183 l 1
 205 183 l 1
 205 84 l 1
 308 84 l 1
103 -16 m 1x2807ff80
 103 -115 l 1
 205 -115 l 1
 205 -16 l 1
 103 -16 l 1x2807ff80
308 -16 m 1
 308 -115 l 1
 410 -115 l 1
 410 -16 l 1
 308 -16 l 1
513 -16 m 1
 513 -115 l 1
 616 -115 l 1
 616 -16 l 1
 513 -16 l 1
720 -16 m 1
 720 -115 l 1
 823 -115 l 1
 823 -16 l 1
 720 -16 l 1
923 -16 m 1
 923 -115 l 1
 1026 -115 l 1
 1026 -16 l 1
 923 -16 l 1
1129 -315 m 1x9007ff80
 1129 -215 l 1
 1026 -215 l 1
 1026 -315 l 1
 1129 -315 l 1x9007ff80
923 -315 m 1
 923 -215 l 1
 823 -215 l 1
 823 -315 l 1
 923 -315 l 1
720 -315 m 1
 720 -215 l 1
 616 -215 l 1
 616 -315 l 1
 720 -315 l 1
513 -315 m 1
 513 -215 l 1
 410 -215 l 1
 410 -315 l 1
 513 -315 l 1
308 -315 m 1
 308 -215 l 1
 205 -215 l 1
 205 -315 l 1
 308 -315 l 1
103 -414 m 1x6007ff80
 103 -514 l 1
 205 -514 l 1
 205 -414 l 1
 103 -414 l 1x6007ff80
308 -414 m 1
 308 -514 l 1
 410 -514 l 1
 410 -414 l 1
 308 -414 l 1
513 -414 m 1
 513 -514 l 1
 616 -514 l 1
 616 -414 l 1
 513 -414 l 1
720 -414 m 1
 720 -514 l 1
 823 -514 l 1
 823 -414 l 1
 720 -414 l 1
923 -414 m 1
 923 -514 l 1
 1026 -514 l 1
 1026 -414 l 1
 923 -414 l 1
1129 1378 m 1x0057ff80
 1026 1378 l 1
 1026 1279 l 1
 1129 1279 l 1
 1129 1378 l 1x0057ff80
923 1378 m 1
 823 1378 l 1
 823 1279 l 1
 923 1279 l 1
 923 1378 l 1
720 1378 m 1
 616 1378 l 1
 616 1279 l 1
 720 1279 l 1
 720 1378 l 1
513 1378 m 1
 410 1378 l 1
 410 1279 l 1
 513 1279 l 1
 513 1378 l 1
308 1378 m 1
 205 1378 l 1
 205 1279 l 1
 308 1279 l 1
 308 1378 l 1
1026 1577 m 1x002fff80
 923 1577 l 1
 923 1478 l 1
 1026 1478 l 1
 1026 1577 l 1x002fff80
823 1577 m 1
 720 1577 l 1
 720 1478 l 1
 823 1478 l 1
 823 1577 l 1
616 1577 m 1
 513 1577 l 1
 513 1478 l 1
 616 1478 l 1
 616 1577 l 1
410 1577 m 1
 308 1577 l 1
 308 1478 l 1
 410 1478 l 1
 410 1577 l 1
205 1577 m 1
 103 1577 l 1
 103 1478 l 1
 205 1478 l 1
 205 1577 l 1
EndSplineSet
EndChar

StartChar: blacksquare
Encoding: 9632 9632 576
Width: 1229
Flags: W
HStem: 84 1057<0 922>
VStem: 0 922<84 1141>
LayerCount: 2
Fore
SplineSet
0 1522 m 5
 1229 1522 l 5
 1229 113 l 5
 0 113 l 5
 0 1522 l 5
EndSplineSet
EndChar

StartChar: whitesquare
Encoding: 9633 9633 577
Width: 1229
Flags: W
HStem: 84 224<187 734> 949 192<187 734>
VStem: 0 187<308 949> 734 188<308 949>
LayerCount: 2
Fore
SplineSet
0 1522 m 1
 1229 1522 l 1
 1229 113 l 1
 0 113 l 1
 0 1522 l 1
251 1266 m 1
 251 412 l 1
 979 412 l 1
 979 1266 l 1
 251 1266 l 1
EndSplineSet
EndChar

StartChar: blacksmallsquare
Encoding: 9642 9642 578
Width: 1229
Flags: W
HStem: 400.365 472.271<224.175 696.825>
VStem: 224.175 472.65<400.365 872.635>
LayerCount: 2
Fore
SplineSet
930 534 m 5
 300 534 l 5
 300 1164 l 5
 930 1164 l 5
 930 534 l 5
EndSplineSet
EndChar

StartChar: whitesmallsquare
Encoding: 9643 9643 579
Width: 1229
Flags: W
HStem: 400.365 113.926<341.925 579.075> 758.709 113.926<341.925 579.075>
VStem: 224.175 117.75<514.291 758.709> 579.075 117.75<514.291 758.709>
LayerCount: 2
Fore
SplineSet
930 534 m 1
 300 534 l 1
 300 1164 l 1
 930 1164 l 1
 930 534 l 1
773 686 m 1
 773 1012 l 1
 457 1012 l 1
 457 686 l 1
 773 686 l 1
EndSplineSet
EndChar

StartChar: blackrectangle
Encoding: 9644 9644 580
Width: 1229
Flags: W
HStem: 395 231<0 922>
LayerCount: 2
Fore
SplineSet
0 835 m 1
 1229 835 l 5
 1229 528 l 5
 0 528 l 1
 0 835 l 1
EndSplineSet
EndChar

StartChar: triagup
Encoding: 9650 9650 581
Width: 1229
Flags: W
LayerCount: 2
Fore
SplineSet
0 110 m 5
 614 1262 l 5
 1229 110 l 5
 0 110 l 5
EndSplineSet
EndChar

StartChar: triagrt
Encoding: 9658 9658 582
Width: 1229
Flags: W
LayerCount: 2
Fore
SplineSet
85 -83 m 1
 83 1191 l 1
 1148 532 l 1
 85 -83 l 1
EndSplineSet
EndChar

StartChar: triagdn
Encoding: 9660 9660 583
Width: 1229
Flags: W
LayerCount: 2
Fore
SplineSet
1229 1262 m 5
 617 110 l 5
 0 1262 l 5
 1229 1262 l 5
EndSplineSet
EndChar

StartChar: triaglf
Encoding: 9668 9668 584
Width: 1229
Flags: W
LayerCount: 2
Fore
SplineSet
84 532 m 5
 1147 1192 l 5
 1147 -83 l 5
 84 532 l 5
EndSplineSet
EndChar

StartChar: lozenge
Encoding: 9674 9674 585
Width: 1229
Flags: W
DStem2: 261 710 89 709 0.489251 -0.872143<0 400.76> 89 709 261 710 0.486669 0.873586<84.5807 485.336> 501 1287 458 1059 0.499203 -0.866485<176.093 577.838> 458 361 501 135 0.501808 0.864979<0 401.737>
LayerCount: 2
Fore
SplineSet
669 1759 m 1
 1113 988 l 1
 669 139 l 1
 549 139 l 1
 119 988 l 1
 549 1759 l 1
 669 1759 l 1
612 1412 m 1
 349 991 l 1
 612 482 l 1
 877 991 l 1
 612 1412 l 1
EndSplineSet
EndChar

StartChar: whitecircle
Encoding: 9675 9675 586
Width: 1229
Flags: W
HStem: 221 150<334.35 586.595> 784 150<333.91 587.132>
VStem: 104 150<452.439 703.668> 668 150<451.815 701.975>
LayerCount: 2
Fore
SplineSet
616 1289 m 0
 885 1289 1091 1027 1091 771 c 0
 1091 504 879 253 616 253 c 0
 345 253 140 509 140 771 c 0
 140 1018 335 1289 616 1289 c 0
616 1047 m 0
 456 1047 340 919 340 771 c 0
 340 605 474 496 616 496 c 256
 770 496 891 618 891 771 c 0
 891 912 779 1047 616 1047 c 0
EndSplineSet
EndChar

StartChar: blackcircle
Encoding: 9679 9679 587
Width: 1229
Flags: W
HStem: 221 713<292.824 631.094>
VStem: 104 714<407.906 745.646>
LayerCount: 2
Fore
SplineSet
616 1289 m 0
 885 1289 1091 1027 1091 771 c 0
 1091 504 879 253 616 253 c 0
 345 253 140 509 140 771 c 0
 140 1018 335 1289 616 1289 c 0
EndSplineSet
EndChar

StartChar: bulletinverse
Encoding: 9688 9688 588
Width: 1229
Flags: W
HStem: 93.0996 233.28<349.727 573.114> 653.62 233.28<348.385 573.674>
VStem: 63 234<377.921 601.629> 624 233<379.634 603.318>
LayerCount: 2
Fore
SplineSet
85 83 m 1
 85 1226 l 1
 1144 1226 l 1
 1144 83 l 1
 85 83 l 1
614 873 m 256
 497 873 397 780 397 654 c 0
 397 526 501 436 614 436 c 0
 734 436 833 532 833 654 c 0
 833 776 737 873 614 873 c 256
EndSplineSet
EndChar

StartChar: whitecircleinverse
Encoding: 9689 9689 589
Width: 1229
Flags: W
HStem: 110 111<289.809 635.959> 371 413<335.607 588.433> 934 111<293.797 632.866>
VStem: 0 105<406.695 749.753> 255 413<448.029 702.431> 818 104<402.264 747.094>
LayerCount: 2
Fore
SplineSet
0 105 m 1
 0 1394 l 1
 1229 1394 l 1
 1229 105 l 1
 0 105 l 1
616 1289 m 0
 361 1289 141 1041 141 770 c 0
 141 506 349 253 616 253 c 0
 871 253 1091 493 1091 770 c 0
 1091 1033 883 1289 616 1289 c 0
617 1047 m 0
 770 1047 891 922 891 770 c 0
 891 613 766 496 617 496 c 0
 466 496 341 613 341 770 c 0
 341 928 469 1047 617 1047 c 0
EndSplineSet
EndChar

StartChar: whitebullet
Encoding: 9702 9702 590
Width: 1229
Flags: W
HStem: 406 113<368.896 552.757> 754 113<368.685 552.223>
VStem: 230 113<545.062 727.979> 579 112<546.84 727.446>
LayerCount: 2
Fore
SplineSet
922 850 m 0
 922 666 774 542 614 542 c 256
 445 542 308 677 308 850 c 0
 308 1020 444 1156 614 1156 c 0
 789 1156 922 1019 922 850 c 0
773 850 m 0
 773 940 699 1007 614 1007 c 256
 533 1007 458 944 458 850 c 0
 458 755 533 693 614 693 c 256
 702 693 773 762 773 850 c 0
EndSplineSet
EndChar

StartChar: smileface
Encoding: 9786 9786 591
Width: 1229
Flags: W
HStem: 124 126<298.564 622.839> 338 54<371.617 548.201> 608 114<255.697 366.296 555.643 665.674> 919 126<293.127 624.394>
VStem: -0 127<417.754 749.129> 254 114<609.589 720.417> 554 113<609.487 720.519> 795 126<419.528 752.828>
LayerCount: 2
Fore
SplineSet
1228 779 m 0
 1228 437 960 124 614 124 c 0
 270 124 0 440 0 779 c 0
 0 1135 284 1394 614 1394 c 0
 960 1394 1228 1122 1228 779 c 0
1060 779 m 0
 1060 1028 866 1268 614 1268 c 0
 364 1268 171 1027 171 779 c 0
 171 521 377 292 614 292 c 0
 857 292 1060 524 1060 779 c 0
492 889 m 256
 492 847 458 811 414 811 c 256
 372 811 340 849 340 889 c 256
 340 927 370 963 414 963 c 256
 460 963 492 928 492 889 c 256
890 889 m 256
 890 847 859 811 817 811 c 256
 771 811 739 847 739 889 c 256
 739 929 770 963 817 963 c 256
 859 963 890 929 890 889 c 256
374 612 m 1
 426 641 l 1
 469 564 532 524 614 524 c 256
 698 524 761 564 803 641 c 1
 856 612 l 1
 801 505 720 452 614 452 c 0
 485 452 414 536 374 612 c 1
EndSplineSet
EndChar

StartChar: invsmileface
Encoding: 9787 9787 592
Width: 1229
Flags: W
HStem: 124 171<330.15 591.942> 738 307<261.901 501.505 421.958 661.515>
VStem: -0 226<494.273 736.313> 343 236<622.894 736.048> 695 226<493.852 734.781>
LayerCount: 2
Fore
SplineSet
1228 779 m 0
 1228 437 960 124 614 124 c 0
 270 124 0 440 0 779 c 0
 0 1135 284 1394 614 1394 c 0
 960 1394 1228 1122 1228 779 c 0
458 907 m 256
 458 947 425 985 380 985 c 256
 334 985 302 946 302 907 c 256
 302 867 335 829 380 829 c 256
 424 829 458 865 458 907 c 256
928 907 m 256
 928 948 897 985 851 985 c 256
 805 985 773 948 773 907 c 256
 773 865 806 829 851 829 c 256
 896 829 928 865 928 907 c 256
332 582 m 1
 378 493 462 394 614 394 c 0
 768 394 850 492 898 582 c 1
 837 617 l 1
 786 525 713 478 614 478 c 256
 517 478 444 525 393 617 c 1
 332 582 l 1
EndSplineSet
EndChar

StartChar: compass
Encoding: 9788 9788 593
Width: 1229
Flags: W
HStem: 448 46<0 162 760 922> 722 47<486 563.283>
VStem: 162 48<494 578.675> 436 50<10 173 769 932> 710 50<363.517 448 492 580.419>
DStem2: 125 839 95 802 0.707613 -0.7066<4.91579 197.993 796.168 991.33> 95 139 127 106 0.708621 0.705589<0 194.565 792.769 988.636>
LayerCount: 2
Fore
SplineSet
582 1286 m 1
 649 1286 l 1
 649 1068 l 1
 741 1068 809 1027 873 978 c 1
 1060 1161 l 1
 1105 1115 l 1
 921 930 l 1
 979 853 1015 733 1015 657 c 1
 1229 657 l 1
 1229 598 l 1
 1015 598 l 1
 1004 518 975 398 922 332 c 1
 1105 141 l 1
 1058 99 l 1
 873 281 l 1
 798 225 742 199 649 189 c 1
 649 14 l 1
 582 14 l 1
 582 189 l 1
 498 201 425 231 359 278 c 1
 171 100 l 1
 127 143 l 1
 310 329 l 1
 257 397 227 514 217 598 c 1
 0 598 l 1
 0 659 l 1
 217 659 l 1
 217 745 255 863 309 928 c 1
 127 1113 l 1
 167 1162 l 1
 358 979 l 1
 434 1032 510 1060 582 1068 c 1
 582 1286 l 1
614 963 m 256
 422 963 281 810 281 629 c 0
 281 444 425 295 614 295 c 256
 806 295 947 448 947 629 c 0
 947 816 800 963 614 963 c 256
EndSplineSet
EndChar

StartChar: female
Encoding: 9792 9792 594
Width: 1229
Flags: W
HStem: 343 69<175 426 499 747> 577 81<346.207 426 499 579.178> 1069 84<343.449 581.435>
VStem: 183 79<741.948 982.372> 426 73<80 343 412 577> 661 80<741.559 986.112>
LayerCount: 2
Fore
SplineSet
569 770 m 1
 383 797 245 996 245 1193 c 0
 245 1426 424 1580 617 1580 c 0
 811 1580 988 1424 988 1193 c 0
 988 983 839 793 666 770 c 1
 666 550 l 1
 996 550 l 1
 996 458 l 1
 666 458 l 1
 666 65 l 1
 569 65 l 1
 569 458 l 1
 235 458 l 1
 235 550 l 1
 569 550 l 1
 569 770 l 1
616 1426 m 0
 469 1426 350 1306 350 1153 c 256
 350 996 470 879 616 879 c 256
 758 879 882 993 882 1153 c 256
 882 1312 760 1426 616 1426 c 0
EndSplineSet
EndChar

StartChar: male
Encoding: 9794 9794 595
Width: 1229
Flags: W
HStem: 250 75<211.388 439.888> 750 75<207.521 441.935>
VStem: 42 76<417.863 660.889> 531 75<414.96 660.222>
DStem2: 474 782 525 740 0.693164 0.72078<5.0786 360.117>
LayerCount: 2
Fore
SplineSet
633 1087 m 1
 968 1392 l 1
 898 1468 689 1542 689 1548 c 1
 717 1580 l 9
 1153 1580 l 0
 1175 1561 l 0
 1175 1100 l 273
 1144 1073 l 1
 1137 1073 1060 1260 1028 1329 c 1
 701 1031 l 1
 773 959 809 831 809 731 c 0
 809 505 638 292 432 292 c 256
 217 292 57 509 57 714 c 0
 57 927 220 1144 434 1144 c 0
 496 1144 561 1124 633 1087 c 1
434 1001 m 0
 279 1001 158 877 158 718 c 256
 158 554 289 434 434 434 c 256
 576 434 709 545 709 718 c 0
 709 885 580 1001 434 1001 c 0
EndSplineSet
EndChar

StartChar: spade
Encoding: 9824 9824 596
Width: 1229
Flags: W
HStem: 152 28<168 272.283 656.397 754>
VStem: 456 14<417.894 503>
LayerCount: 2
Fore
SplineSet
616 1440 m 1
 710 1047 1103 984 1103 704 c 0
 1103 572 1002 480 883 480 c 0
 779 480 694 544 627 672 c 1
 627 326 818 198 1007 198 c 1
 1012 161 l 1
 217 161 l 1
 225 198 l 1
 533 198 609 446 609 672 c 1
 546 536 452 480 348 480 c 0
 228 480 127 577 127 699 c 0
 127 995 525 1027 616 1440 c 1
EndSplineSet
EndChar

StartChar: club
Encoding: 9827 9827 597
Width: 1229
Flags: W
HStem: 151 25<150 211.374 718.551 773> 355 416<78.7852 299.617 619.973 842.203>
VStem: 252 415<744.613 993.475> 453 15<445.978 533>
LayerCount: 2
Fore
SplineSet
1040 159 m 1xd0
 195 159 l 1
 201 193 l 1
 228 198 605 273 605 665 c 0
 605 675 605 690 605 712 c 1xd0
 530 558 407 474 277 474 c 0
 135 474 0 580 0 753 c 0
 0 935 139 1072 239 1072 c 0
 281 1072 335 1055 404 1019 c 1
 348 1113 337 1146 337 1202 c 0
 337 1350 449 1428 613 1428 c 0
 773 1428 890 1352 890 1204 c 0xe0
 890 1145 867 1083 821 1019 c 1
 915 1064 929 1072 984 1072 c 0
 1114 1072 1229 917 1229 757 c 0
 1229 593 1104 474 956 474 c 0
 749 474 645 678 625 712 c 1
 625 326 840 231 1032 193 c 1
 1040 159 l 1xd0
EndSplineSet
EndChar

StartChar: heart
Encoding: 9829 9829 598
Width: 1229
Flags: W
LayerCount: 2
Fore
SplineSet
618 121 m 1
 509 525 107 864 107 1131 c 0
 107 1276 213 1332 348 1332 c 0
 456 1332 558 1315 618 1143 c 1
 666 1315 778 1334 882 1334 c 0
 1024 1334 1123 1266 1123 1144 c 0
 1123 833 723 525 618 121 c 1
EndSplineSet
EndChar

StartChar: diamond
Encoding: 9830 9830 599
Width: 1229
Flags: W
LayerCount: 2
Fore
SplineSet
614 1425 m 1
 714 1188 901 953 1074 801 c 1
 929 689 726 377 614 132 c 1
 524 337 305 689 158 801 c 1
 333 953 485 1153 614 1425 c 1
EndSplineSet
EndChar

StartChar: musicalnote
Encoding: 9834 9834 600
Width: 1229
Flags: W
HStem: 135.78 236.52<235.114 404.073> 1026.22 20G<419 480>
VStem: 183 297<213.517 321.525> 419 61<357.72 767.58 964.41 1046.22> 626 67<401.088 670.848>
LayerCount: 2
Fore
SplineSet
560 478 m 1xd8
 560 1395 l 1
 641 1395 l 1
 641 1329 l 1
 808 1123 l 2
 868 1037 924 874 924 737 c 0
 924 626 890 529 823 444 c 1
 771 444 l 1
 814 538 835 628 835 713 c 256
 835 899 724 1053 641 1067 c 1
 641 478 l 2xd8
 641 345 526 140 369 140 c 0
 291 140 245 177 245 246 c 0xe8
 245 354 338 498 462 498 c 0
 491 498 523 492 560 478 c 1xd8
EndSplineSet
EndChar

StartChar: musicalnotedbl
Encoding: 9835 9835 601
Width: 1229
Flags: W
HStem: 71 235<87.9738 255.579> 147 235<593.354 761.757> 1025 20G<760.793 839>
VStem: 272 61<292 611 714 807> 779 60<368 732 835 928>
DStem2: 272 900 333 807 0.968822 0.247759<36.0566 498.13> 333 714 333 611 0.965113 0.261835<0 435.153>
LayerCount: 2
Fore
SplineSet
1120 492 m 2xb8
 1120 299 987 155 849 155 c 0
 745 155 725 219 725 261 c 0
 725 367 817 510 943 510 c 0x78
 978 510 1010 502 1040 492 c 1
 1040 1019 l 1
 445 816 l 1
 445 348 l 2
 445 155 313 53 173 53 c 0
 69 53 49 117 49 159 c 0
 49 265 141 409 268 409 c 0
 303 409 338 359 364 348 c 1
 364 1243 l 1
 1120 1394 l 1
 1120 492 l 2xb8
445 953 m 1
 1040 1114 l 1
 1040 1238 l 1
 445 1076 l 1
 445 953 l 1
EndSplineSet
EndChar

StartChar: arrowboth
Encoding: 8596 8596 602
Width: 1229
VWidth: 1708
Flags: W
LayerCount: 2
Fore
SplineSet
525 992 m 29
 204 600 l 29
 525 208 l 29
154 -99 m 5
 154 1256 l 5
 1076 1256 l 5
 1076 -99 l 5
 154 -99 l 5
705 992 m 29
 1026 600 l 29
 705 208 l 29
1026 600 m 29
 204 600 l 29
EndSplineSet
EndChar

StartChar: arrowbothv
Encoding: 8597 8597 603
Width: 1229
VWidth: 1708
Flags: W
LayerCount: 2
Fore
SplineSet
975 752 m 29
 615 1091 l 29
 255 752 l 29
154 55 m 1
 154 1145 l 1
 1076 1145 l 1
 1076 55 l 1
 154 55 l 1
975 510 m 25
 615 107 l 25
 255 510 l 25
615 107 m 25
 615 1091 l 29
EndSplineSet
EndChar

StartChar: updownarrowbar
Encoding: 8616 8616 604
Width: 1229
VWidth: 1708
Flags: W
LayerCount: 2
Fore
SplineSet
204 26 m 25
 1026 26 l 25
975 752 m 25
 615 1091 l 25
 255 752 l 25
154 -443 m 1
 154 1145 l 1
 1076 1145 l 1
 1076 -443 l 1
 154 -443 l 1
975 510 m 25
 615 107 l 25
 255 510 l 25
615 107 m 25
 615 1091 l 25
EndSplineSet
EndChar

StartChar: nsuperior
Encoding: 8319 8319 605
Width: 1229
VWidth: 1947
Flags: MW
LayerCount: 2
Fore
SplineSet
928 544 m 25
 928 1105 l 18
 928 1257 852 1349 627 1349 c 10
 604 1349 l 18
 407 1349 303 1110 303 996 c 10
 303 544 l 25
 303 1424 l 25
EndSplineSet
EndChar

StartChar: radical
Encoding: 8730 8730 606
Width: 1229
VWidth: 1708
Flags: MW
LayerCount: 2
Back
SplineSet
130 -25 m 5
 130 1641 l 5
 1229 1641 l 1
 1229 -25 l 1
 130 -25 l 5
EndSplineSet
Fore
SplineSet
1183 1755 m 25
 679 5 l 25
 355 995 l 25
 -17 995 l 25
EndSplineSet
EndChar

StartChar: intersection
Encoding: 8745 8745 608
Width: 1229
VWidth: 1947
Flags: MW
LayerCount: 2
Fore
SplineSet
1024 0 m 25
 1024 1013 l 18
 1024 1194 890 1350 626 1350 c 10
 601 1350 l 18
 337 1350 205 1194 205 1013 c 10
 205 0 l 25
EndSplineSet
EndChar

StartChar: infinity
Encoding: 8734 8734 609
Width: 1229
Flags: MW
LayerCount: 2
Fore
SplineSet
870 872 m 3
 1043 872 1133 756 1133 618 c 3
 1133 460 1039 361 870 361 c 3
 691 361 615 512 615 618 c 3
 615 717 699 872 870 872 c 3
345 873 m 3
 203 873 96 744 96 618 c 3
 96 476 199 362 345 362 c 3
 551 362 615 512 615 618 c 3
 615 717 547 873 345 873 c 3
EndSplineSet
EndChar

StartChar: almostequal
Encoding: 8776 8776 610
Width: 1229
VWidth: 1947
Flags: MW
LayerCount: 2
Fore
SplineSet
139 788 m 17
 170 896 252 975 344 975 c 10
 416 975 l 18
 489 975 545 947 571 921 c 2
 664 829 l 2
 689 804 751.5 779 831 779 c 10
 886 779 l 18
 984.134 779 1059 876 1091 965 c 9
139 340 m 17
 170 448 255 527 344 527 c 10
 416 527 l 18
 495 527 545 499 571 473 c 2
 664 381 l 2
 689 356 750 331 831 331 c 10
 886 331 l 18
 1010.89 331 1062 426 1091 517 c 9
EndSplineSet
EndChar

StartChar: equivalence
Encoding: 8801 8801 611
Width: 1229
Flags: W
LayerCount: 2
Fore
SplineSet
130 920 m 25
 1099 920 l 25
130 600 m 25
 1099 600 l 25
130 278 m 25
 1099 278 l 25
EndSplineSet
EndChar

StartChar: lessequal
Encoding: 8804 8804 612
Width: 1229
VWidth: 1708
Flags: MW
LayerCount: 2
Back
SplineSet
130 1612 m 1
 1099 1612 l 1
 1099 -150 l 1
 130 -150 l 1
 130 1612 l 1
EndSplineSet
Fore
SplineSet
-171 669 m 25
 1272 132 l 25
1272 1228 m 25
 163 859 l 25
 1272 457 l 25
EndSplineSet
EndChar

StartChar: greaterequal
Encoding: 8805 8805 613
Width: 1229
VWidth: 1708
Flags: MW
LayerCount: 2
Back
SplineSet
130 1612 m 1
 1099 1612 l 1
 1099 -150 l 1
 130 -150 l 1
 130 1612 l 1
EndSplineSet
Fore
SplineSet
1493 669 m 25
 -42 132 l 25
-42 1228 m 25
 1062 859 l 25
 -42 457 l 25
EndSplineSet
EndChar

StartChar: revlogicalnot
Encoding: 8976 8976 614
Width: 1229
VWidth: 1708
Flags: MW
LayerCount: 2
Fore
SplineSet
1099 600 m 25
 205 600 l 25
 205 214 l 25
EndSplineSet
EndChar

StartChar: integraltp
Encoding: 8992 8992 615
Width: 1229
Flags: MW
LayerCount: 2
Fore
SplineSet
615 -615 m 25
 615 1414 l 18
 615 1489.5 665.5 1548 754 1548 c 2
 764 1548 l 2
 924 1548 971 1489.5 971 1414 c 9
 971 1340 l 25
EndSplineSet
EndChar

StartChar: integralbt
Encoding: 8993 8993 616
Width: 1229
Flags: MW
LayerCount: 2
Fore
SplineSet
615 1775 m 29
 615 -324 l 18
 615 -399.5 564.5 -458 476 -458 c 2
 466 -458 l 2
 229 -458 182 -399.5 182 -324 c 9
 182 -218 l 25
EndSplineSet
EndChar
